<?xml version="1.0" encoding="UTF-8"?>
<svg id="Layer_1" data-name="Layer 1" xmlns="http://www.w3.org/2000/svg" viewBox="0 0 93.71 50">
  <defs>
    <style>
      .cls-1 {
        fill: #121212;
      }

      .cls-1, .cls-2 {
        fill-rule: evenodd;
      }

      .cls-2 {
        fill: #f5f5f5;
      }
    </style>
  </defs>
  <path class="cls-1" d="M32.99,47.14l-.64-3.87s-.42-1.85,4.37-2.13c4.79-.28,8.94.39,10.56.63,1.62.24,7.62,1.19,9.85,1.46,2.33.28,8.79,1.61,12.33-1.04,0,0,.34,4.41-4.72,5.16-5.06.76-12.85-.52-13.96-.69-1.36-.21-7.08-1.14-10.93-1.23-2.72-.06-6.95.25-6.86,1.7Z"/>
  <g>
    <path class="cls-1" d="M51.43,10.67c-.43.54-.91,1.36-1.42,2.41-2.12.47-3.29,1.55-3.34,1.59l-.25.24.35-.02c.69-.04,1.45.08,2.27.32-.8,1.89-1.39,3.59-1.4,3.61l-.18.51s3.31-3.25,3.44-3.38c1.13.56,1.92,1.14,1.93,1.14l.32.24s-.82-2.47-.86-2.6c1.11-1.35,1.74-1.89,1.74-1.89l.28-.23-.69.02c-.41.01-1.03.03-1.9.14,0-.25-.09-2.39-.09-2.39l-.21.28Z"/>
    <path class="cls-1" d="M42.42,12.66c-.25.38-.53.92-.83,1.66-1.37.41-2.09,1.18-2.12,1.21l-.23.25.34-.04c.43-.05.92,0,1.45.11-.08.26-.91,2.97-.91,2.97l.39-.45s1.74-1.97,1.85-2.1c.75.32,1.28.65,1.29.66l.34.22s-.68-1.67-.73-1.79c.66-.92,1.04-1.3,1.04-1.31l.26-.25-.58.06s-.97.14-1.19.17c-.02-.22-.18-1.66-.18-1.66l-.19.29Z"/>
    <path class="cls-1" d="M31.42,16.22c-.16.25-.34.62-.52,1.09-.88.28-1.34.78-1.36.8l-.22.25.33-.04c.26-.03.56,0,.87.07-.07.24-.62,2.12-.62,2.12l.39-.46s1.13-1.32,1.16-1.36c.13.07,1.1.58,1.1.58l-.12-.31s-.32-.81-.37-.92c.41-.59.65-.84.65-.84l.25-.25-.49.05s-.53.08-.73.11c-.02-.2-.13-1.18-.13-1.18l-.19.3Z"/>
    <path class="cls-1" d="M36.8,15.71c-.22.32-.45.8-.7,1.41-1.16.35-1.77,1-1.79,1.03l-.23.25.34-.04c.35-.04.76,0,1.2.09-.08.26-.79,2.61-.79,2.61l.39-.45s1.44-1.65,1.55-1.79c.62.27,1.07.55,1.08.56l.34.22s-.59-1.46-.64-1.58c.55-.78.87-1.1.87-1.11l.26-.25-.55.06s-.77.11-.98.14c-.02-.21-.15-1.45-.15-1.45l-.19.29Z"/>
    <path class="cls-1" d="M46.75,7.38c-.21.32-.45.8-.7,1.42-1.16.36-1.78,1.01-1.8,1.03l-.23.25.34-.04c.36-.04.77,0,1.21.09-.08.26-.79,2.61-.79,2.61l.39-.45s1.45-1.66,1.57-1.79c.63.27,1.08.56,1.09.56l.34.22s-.59-1.46-.64-1.58c.55-.78.88-1.11.88-1.11l.26-.25-.54.05s-.79.12-1.01.15c-.02-.21-.15-1.45-.15-1.45l-.2.29Z"/>
    <path class="cls-1" d="M41.49,27.71s-.62.25-1.02.2c-.39-.05-.9-.17-1.06-.99-.17-.83.14-.77.75-.83.61-.06,1.71-.57,2.32-.85.61-.28,1.39-.33,1.74.36.35.68-.16,1.39-.48,1.8-.18.23-.13.36.25.1.38-.26,1.37-1.04,2.46-1.42,1.09-.38,1.78.02,1.87.91.09.8-.37,2.1-.66,2.84-.03.08-.11.2-.06.2.04,0,.09-.07.2-.18.38-.36,1.18-1.13,1.47-1.34.18-.13,1.73-1.34,2.26.25.53,1.58,1.2,3.61,1.65,4.53.5,1.01,1.08,1.65,1.23,1.9.16.25.62,1.09.09,1.5-.53.41-2.47-.28-3.31-2.79-.76-2.25-.82-2.47-.88-2.69-.08-.27-.29-.73-1.44.41-.7.69-1.58,1.72-2.05,2.35-.4.54-.9,1.31-1.11,1.58-.21.27-.82,1.22-1.46-.15-.64-1.37-.18-2.12.19-3.11.37-.99.8-1.9.89-2.27.09-.37.3-1.19-.96-.33-1.31.88-2.76,2.32-3.82,3.56-.77.91-1.13,1.28-1.42,1.55-.29.27-1,.83-1.16-.76-.17-1.6.21-1.68.78-2.39.57-.71,2.95-3.56,2.76-3.9Z"/>
    <path class="cls-1" d="M86.48,19.81s1.88-2.6,5.15-2.53c1.77.03,2.27,1.3,2.02,2.26-.15.59-.36.91-.7,1.17-.79.6-2.76.78-2.73-.89,0,0-.43-.24-1.67.63-1.28.9-1.56,1.8-1.21,1.99.34.18.92.18,2.74-.14,1.82-.32,2.86.45,3.14.99.28.54.75,2.26-1.4,4.23-1.61,1.47-2.15,1.86-3.74,2.64-1.29.63-2.45.97-2.87,1.03-.53.07-1.32-.16-1.38-.9-.06-.74.35-.94,1.19-1.18.84-.24,2.59-.87,4.39-2.43,1.72-1.49,2.24-2.71.57-2.45-1.6.25-2.79.66-3.91-.09-1.41-.94-.41-3.25.42-4.33Z"/>
    <path class="cls-1" d="M33.51,14.22c-3.37-.6-6.72.1-9.95,1.52.76-3.31,2.99-8.37,4.14-10.18,1.17-1.85,1.35-2.42,1.46-2.89.1-.47.55-1.64.83-2.06.29-.42.08-1.12-.96,0-1.04,1.12-1.54,1.43-3.87,5.07-1.95,3.04-3.46,7.55-4.39,11.47-3.19,1.8-6.25,4.16-9.07,6.46.36-2.77.76-5.55,1.08-7.41.71-4.21.44-4.09-.6-5.41-.95-1.19-1.42-.06-1.75,1.22-.32,1.21-1.45,9.01-1.7,10.98-.09.74-.22,1.9-.34,3.31-4.44,3.48-5.73,3.75-6.65,4.06-.63.21-1.06.18-1.52.24-.16.02-.27.18-.17.34,1.14,1.63,3.21,1.37,4.22,1.08,1.02-.29,1.13-.32,3.32-1.58.17-.1.35-.21.54-.34-.08,1.7-.13,3.54-.11,5.39.06,5.43,2.9,8.85,3.49,8.84.51,0-.2-1.26-.53-2.33-.66-2.13-.51-6.48-.23-10.04.08-1,.23-2.51.44-4.24,2.25-1.9,5.16-4.52,8.57-7.47.15-.13.3-.25.44-.37-.12.69-.23,1.34-.3,1.93-.54,4.3-.68,11.43-.47,14.5.21,3.07.84,4.83,2.06,4.72,1.65-.15,1.16-3.19,1.04-4.85-.47-6.28.08-14.27.69-18.48,4.01-2.46,7.03-2.64,7.99-2.77,1.22-.17,2.88.09,3.06-.19.18-.28-.75-.51-.75-.51Z"/>
    <path class="cls-1" d="M67.13,27.57c-.24-.08-.46,0-.65.17v-2.18c.66-.16,1.31-.11,1.84.08,1.31.47,1.87,2.54,1.52,4.26-.34,1.69-1.16,3.56-3.36,3.76v-2.02c.33-.46.66-1.17.86-1.9.18-.67.39-1.96-.21-2.17h0ZM66.48,37.2c.06,0,.12,0,.18,0,2.33-.16,4-1.65,4.55-2.91.62-1.41.41-2.65.19-2.75-.31-.13-.49.4-1.01,1.23-.81,1.3-1.84,2.51-3.34,2.71-.22.03-.41.01-.57-.04v1.76ZM66.48,27.74c-.38.35-.66,1.1-.82,1.8-.25,1.07-.4,2.54.12,2.64.19.04.44-.18.7-.55v2.02c-.31.03-.64.02-1-.02,0,0,.04,1.49,1,1.8v1.76c-2.24.05-3.29-1.81-3.58-3.93,0,0-2.38-.71-1.87-1.57.2-.34.61-.01.88.11.42.2.85.2.85.2,0,0-.05-2.26,1.15-4.36.7-1.23,1.65-1.86,2.58-2.09v2.18Z"/>
    <path class="cls-1" d="M73.2,24.41c0-.4.07-1.93,1.57-1.37,1.5.55,1.21,2.87,1.19,3.44-.02.57-.06,1.44-.09,1.87-.02.33-.1,1.57,1.08.13,1.24-1.52,2.35-3.27,2.8-4.83.45-1.56.57-1.92,1.78-2.15,1.2-.24,1.31.27,1.05,1.56-.26,1.29-1.34,7.07-1.54,8.02-.19.95-1.44,7.42-1.85,9.06-.41,1.64-.89,3.69-1.5,5.35-.49,1.35-1.99,4.59-2.95,4.52-.96-.07.48-1.65,1.21-4.52.81-3.15,1.01-4.83,1.33-6.47.32-1.64.38-2.44.61-3.72.46-2.63.82-5.36.93-6.19,0,0-1.58,2.13-2.88,3.18-1.02.83-1.96.55-2.28-.93-.35-1.6-.48-4.7-.47-6.94Z"/>
    <path class="cls-1" d="M58.54,10.98c.14-.99.21-2.55.64-3.07.46-.54,2.21-.3,2.42,1.83.21,2.13-.35,4.76-.6,6.15-.26,1.39-1.2,5.73-1.39,6.76-.12.68-.85,4.88-1.09,7.76-.17,2.01-.28,4.1.67,6.34.51,1.2.36,1.68-.07,1.75-.67.12-1.63-1.87-1.97-3.09-.67-2.41-.81-3.85-.89-5.63-.11-2.49.13-4.21.37-6.43.24-2.23,1.32-7.91,1.92-12.38Z"/>
    <path class="cls-1" d="M25.76,27.04c.74-1.45,2-2.9,4.45-4.16,2.37-1.22,3.52-1.21,3.95-.54.58.91.06,1.68-2.05,2.41-2.5.86-5.01,3.21-4.38,4.47.58,1.14,2.78-.66,4.18-2.24,1.39-1.58,2.55-2.24,3.42-1.49.67.58.32,1.43-.28,3.26-.48,1.46.1,1.82.5,1.72.4-.09.66-.21.59.52-.07.73-1.06,1.98-2.43,1.37-1.37-.61-.54-3.07-.5-3.4.05-.33.19-1.04-.62.03-.8,1.06-2.82,3.28-4.92,3.12-1.75-.14-3.51-1.9-1.91-5.06Z"/>
    <path class="cls-1" d="M84.86,32.71c.08-.01.13-.07.13-.16s-.05-.14-.13-.16v-.16c.09,0,.16.03.23.07.07.05.1.13.1.23,0,.13-.07.23-.18.28l.23.35s0,.02,0,.03c0,.01,0,.02-.03.02h-.14s-.04,0-.06-.03l-.17-.28v-.21h0ZM84.86,33.74c.55-.01,1-.46,1-1.01s-.45-1-1-1.01v.23c.43,0,.75.35.75.78s-.32.77-.75.78v.23ZM84.8,32.39h-.07v.33h.06s.03,0,.05,0h.03s0,.21,0,.21l-.03-.05h-.1v.32s0,.04-.03.04h-.12s-.04-.01-.04-.04v-.9s.02-.05.04-.05h.12c.06,0,.12,0,.16,0v.16s-.04,0-.06,0h0ZM84.86,31.72h-.02c-.57,0-1.02.45-1.02,1.01s.44,1.01,1.02,1.01h.02v-.23h-.02c-.44,0-.77-.35-.77-.78s.33-.78.77-.78h.02v-.23Z"/>
  </g>
  <path class="cls-2" d="M36.49,44.25s.05-.02.04-.08c-.05-.6-.09-1.11-.14-1.71,0-.06-.01-.08-.06-.07,0-.01,0-.03,0-.04.43-.05.82-.09,1.24-.12.06,0,.06-.02.06-.06,0,0,.02,0,.03,0,.02.15.03.3.04.45-.01,0-.02,0-.03,0,0-.05-.03-.06-.07-.07-.32.02-.6.04-.93.08.02.16.03.32.04.48.22-.02.39-.03.61-.05.04,0,.06-.02.06-.07.01,0,.02,0,.03,0,.01.15.03.3.04.46-.01,0-.02,0-.03,0,0-.04-.01-.06-.07-.06-.22.02-.39.02-.61.05.01.18.03.35.04.52.34-.02.62-.05.95-.07.05,0,.06-.02.06-.07,0,0,.02,0,.03,0,.01.15.01.28.04.44,0,0-.02,0-.03,0,0-.04-.03-.06-.07-.06-.45.02-.81.05-1.27.09,0-.01,0-.02,0-.04Z"/>
  <path class="cls-2" d="M39.41,42.81s-.02-.02-.03-.03v-.04s-.19-.23-.52-.24c-.32.01-.42.13-.42.32.13.48,1.05-.24,1.21.82.01.39-.17.61-.72.63-.51-.02-.62-.2-.67-.22-.01,0-.02.02-.03.02,0,0-.02,0-.02,0,.05-.17.08-.3.13-.47.01,0,.02.02.03.02,0,.01,0,.03,0,.04.02.17.26.26.52.28.37-.01.45-.12.46-.29-.13-.57-1.03.18-1.19-.81-.02-.5.28-.67.68-.69.36.02.6.21.62.22.01,0,.02-.01.04-.02.01,0,.02.01.03.02-.03.16-.07.28-.12.43Z"/>
  <path class="cls-2" d="M40.87,44.13c0,.06.03.08.07.08,0,.01,0,.02,0,.04-.14,0-.26,0-.4-.02,0-.01,0-.03,0-.04.04,0,.06-.01.05-.08-.05-.53-.08-.99-.15-1.56-.16,0-.31-.01-.47-.01-.06,0-.06.02-.06.07h-.03c-.02-.16-.03-.31-.05-.47,0,0,.02,0,.03,0,0,.05.02.07.08.07.42,0,.79.01,1.22.04.05,0,.06-.02.06-.07.01,0,.02,0,.03,0,.02.16.03.32.05.48h-.03s-.02-.07-.07-.08c-.16-.01-.31-.01-.47-.02.05.57.1,1.02.15,1.56Z"/>
  <path class="cls-2" d="M43.48,44.34s.05,0,.04-.07c-.05-.6-.07-1.1-.14-1.76,0-.06-.02-.09-.06-.09,0-.01,0-.03,0-.04.13.01.26.02.39.04,0,.01,0,.03,0,.04-.06,0-.06.02-.05.08.06.58.07,1.02.12,1.56.32.03.6.06.91.1.04,0,.07,0,.06-.06.01,0,.02,0,.03,0,.01.15.02.29.04.43,0,0-.02,0-.03,0,0-.04-.02-.06-.07-.07-.43-.05-.82-.08-1.24-.12,0-.01,0-.02,0-.04Z"/>
  <path class="cls-2" d="M45.8,44.67s.06.01.09.02c.48.04.77-.18.74-.89-.09-.65-.39-1.02-.83-1.14v.33c.28.09.48.32.55.77.03.49-.18.64-.48.62-.02,0-.04,0-.06-.01v.3ZM45.7,42.63c-.47-.04-.76.24-.73.95.09.66.39.98.83,1.09v-.3c-.28-.07-.48-.29-.54-.75-.03-.49.17-.67.48-.64.02,0,.05,0,.07.02v-.33s-.07-.02-.1-.03Z"/>
  <path class="cls-2" d="M48.63,44.94c0,.06.02.08.06.09,0,.01,0,.02,0,.04-.12-.02-.24-.04-.37-.06,0-.01,0-.02,0-.03.01,0,.02-.01.04-.01-.02-.03-.03-.05-.04-.08-.36-.49-.66-.92-1.01-1.44.04.48.08.86.11,1.32,0,.06.02.08.06.08,0,.01,0,.02,0,.04-.12-.02-.23-.04-.35-.05,0-.01,0-.02,0-.04.04,0,.05,0,.04-.07-.05-.59-.1-1.1-.16-1.74,0-.06-.01-.08-.05-.09,0-.01,0-.02,0-.04.14.02.28.04.42.07,0,.01,0,.03,0,.04-.04-.01-.05,0-.05.03,0,.01.01.03.02.05.35.51.64.92.98,1.4-.04-.43-.07-.8-.11-1.26,0-.06,0-.08-.06-.09,0-.01,0-.03,0-.04.12.02.23.04.36.06,0,.01,0,.03,0,.04-.04,0-.05.01-.05.08.07.64.11,1.14.15,1.73Z"/>
  <path class="cls-2" d="M49.85,45.24l.2.04c.43.05.63-.16.6-.85-.08-.62-.28-.99-.8-1.11v.32c.26.06.46.19.52.74.04.52-.09.62-.34.59l-.18-.03v.3ZM49.18,45.02c0,.06,0,.08-.05.07,0,.01,0,.02,0,.04.25.04.48.07.72.11v-.3l-.41-.06c-.04-.46-.07-.84-.12-1.33.18.03.34.06.52.09h0s0-.32,0-.32h0c-.31-.05-.58-.1-.88-.15,0,.01,0,.02,0,.04.05.01.06.03.06.09.06.63.1,1.14.15,1.72Z"/>
  <path class="cls-2" d="M51.88,45.57s.06.01.09.02c.5.05.79-.17.74-.85-.07-.64-.4-.99-.83-1.12v.32c.29.08.5.32.55.76.03.47-.17.63-.49.59-.02,0-.04,0-.06-.01v.3ZM51.8,43.6c-.5-.05-.77.19-.74.88.09.64.4.97.83,1.09v-.3c-.29-.08-.5-.3-.55-.75-.03-.47.17-.64.49-.6.02,0,.04,0,.06.01v-.32s-.06-.02-.09-.02Z"/>
  <path class="cls-2" d="M54.68,45.85c0,.06.02.08.06.08,0,.01,0,.02,0,.04-.12-.02-.24-.03-.37-.05,0-.01,0-.02,0-.04.01,0,.03,0,.04-.01-.02-.02-.03-.05-.05-.08-.34-.49-.65-.9-1.01-1.4.04.46.07.84.11,1.29,0,.07.02.08.06.09v.03c-.12-.02-.23-.03-.35-.05,0-.01,0-.02,0-.03.04,0,.04-.01.04-.07-.05-.58-.09-1.09-.15-1.7,0-.06-.01-.08-.05-.09,0,0,0-.02,0-.04.14.02.27.04.42.06,0,.02,0,.03,0,.04-.02.01-.03.02-.05.03,0,.01.02.03.03.04.33.49.64.88.97,1.35-.04-.43-.07-.79-.11-1.22,0-.06,0-.08-.06-.09,0-.01,0-.03,0-.04.13.02.23.03.36.05,0,.01,0,.02,0,.04-.04,0-.05.01-.05.07.05.61.1,1.11.15,1.7Z"/>
  <path class="cls-2" d="M57.01,44.45c.06-.07.03-.1.03-.1.13.02.25.02.39.04,0,.01,0,.02,0,.04-.05,0-.06.02-.05.09.05.6.09,1.09.15,1.67,0,.07.02.1.07.1,0,.01,0,.02,0,.04-.14-.01-.26-.03-.4-.04,0-.01,0-.02,0-.04.04,0,.06-.02.05-.09-.04-.46-.08-.84-.12-1.32-.15,0-.17.02-.17.09,0,0-.02,0-.03,0-.01-.14-.03-.28-.04-.43,0,0,.05.02.12-.05Z"/>
  <path class="cls-2" d="M58.91,44.85c-.32-.03-.6-.04-.92-.06-.04,0-.07,0-.07.05,0,0-.02,0-.03,0-.01-.16-.02-.3-.04-.46,0,0,.02,0,.03,0,0,.04.02.06.08.06.4.03.74.06,1.15.08.04,0,.07,0,.07-.06,0,0,.02,0,.03,0,.01.13,0,.22.03.35-.19.52-.35.96-.53,1.47,0,.03-.01.05-.02.08,0,.03.02.03.04.03,0,.01,0,.03,0,.04-.15,0-.28-.02-.44-.03,0-.01,0-.02,0-.04.04,0,.05-.04.08-.08.19-.51.35-.93.54-1.44Z"/>
  <path class="cls-2" d="M60.86,44.81s-.02,0-.02-.01c-.01,0-.02.02-.03.02-.02,0-.07-.04-.16-.09-.07-.03-.15-.07-.26-.08v.31c.22.03.32.16.33.23,0,.01,0,.02,0,.03.01,0,.02.01.03.02.04-.15.07-.28.11-.43h0ZM60.39,46.65s.04,0,.06,0c.33-.01.62-.15.59-.68-.06-.46-.33-.63-.65-.65v.32c.22.02.34.11.37.35.01.26-.09.34-.34.34h-.03s0,.31,0,.31ZM60.39,44.65s-.05,0-.08,0c-.47.02-.68.36-.65,1.01.08.63.29.94.73,1v-.31c-.23-.02-.35-.11-.37-.36,0-.18.09-.33.34-.34h.03s0-.32,0-.32h0c-.16,0-.32.05-.46.22,0-.41.14-.57.43-.58h.04s0-.31,0-.31Z"/>
  <path class="cls-2" d="M62,46.72s.06,0,.09,0c.45-.05.66-.43.63-1.04-.06-.57-.3-.91-.72-.96v.32c.24.04.4.27.44.67.03.43-.1.67-.38.71-.02,0-.04,0-.06,0v.32ZM61.92,44.72c-.45.05-.67.41-.63,1.02.07.57.32.93.71.98v-.32c-.25-.04-.39-.27-.44-.67-.03-.44.09-.67.38-.7.02,0,.04,0,.06,0v-.32s-.06,0-.09,0Z"/>
  <path class="cls-1" d="M44.47,46.43c1.47.14,1.84.2,1.84.2l.19,1.52s-.01-.43-1.64-.54c-.52-.04-1.19-.02-2.37.15l-.07-1.51c1.24.08,1.19.09,2.04.17Z"/>
  <path class="cls-1" d="M42.44,46.41l.06,1.33s1.82-.26,2.86-.11c1.07.15,1.81.69.13,1-1.17.21-2.92.39-5.47.37-2.8-.03-5.35-.41-6.24-.83-1.29-.61.56-1.68,2.74-1.88.61-.06,1.11-.17,3.43-.15.67,0,1.5.06,2.5.13l-.02.15Z"/>
</svg>