<?xml version="1.0" encoding="UTF-8"?>
<svg id="Layer_1" data-name="Layer 1" xmlns="http://www.w3.org/2000/svg" xmlns:xlink="http://www.w3.org/1999/xlink" viewBox="0 0 50 50">
  <defs>
    <style>
      .cls-1 {
        fill: none;
      }

      .cls-2 {
        fill: #6d6e71;
      }

      .cls-3 {
        clip-path: url(#clippath);
      }
    </style>
    <clipPath id="clippath">
      <rect class="cls-1" width="50" height="50"/>
    </clipPath>
  </defs>
  <g class="cls-3">
    <path class="cls-2" d="M25,0C11.19,0,0,11.19,0,25s11.19,25,25,25,25-11.19,25-25S38.81,0,25,0M48.37,25c0,12.91-10.46,23.38-23.38,23.38S1.63,37.91,1.63,25,12.09,1.62,25,1.62s23.38,10.47,23.38,23.38"/>
    <path class="cls-2" d="M37.12,14.39c.34.36.83.95,1.1,1.31l5.06-3.21c-.25-.33-.66-.83-.96-1.19l-3.21,2.12-.22.19.16-.24,1.42-2.83-1-1-2.83,1.42-.24.16.19-.22,2.12-3.2c-.37-.32-.73-.61-1.19-.96l-3.21,5.06c.41.31.94.77,1.29,1.09l3.03-1.57.19-.14-.14.19-1.57,3.03Z"/>
    <path class="cls-2" d="M25.63,7.98l1.38-3.1.09-.27-.03.29.15,4.14c.49.05.99.11,1.48.19l-.23-6.13c-.69-.08-1.38-.13-2.07-.16l-1.36,3.38-.05.25-.05-.25-1.36-3.38c-.69.03-1.38.08-2.07.16l-.23,6.13c.49-.08,1-.15,1.48-.19l.14-4.14-.02-.29.09.27,1.38,3.1h1.26Z"/>
    <path class="cls-2" d="M14.44,12.87c.8-.84,1.25-1.82.45-2.74-.44-.51-1.17-.62-1.77-.37l-.06.02.02-.05c.09-.24.15-1-.5-1.53-.32-.26-.72-.35-1.12-.31-.75.08-1.33.59-2.9,2.34-.47.53-1.17,1.36-1.58,1.9,0,0,4.32,4.1,4.32,4.1,1.44-1.59,2.02-2.18,3.15-3.37M8.8,11.87c.87-1.06,1.8-2.03,2.22-2.41.13-.12.28-.24.45-.29.28-.08.58.12.64.42.07.29-.12.57-.32.8-.46.52-2.15,2.28-2.15,2.28l-.84-.8M10.5,13.47s1.64-1.74,2.18-2.29c.21-.22.35-.35.5-.43.19-.09.4-.11.58.01.18.12.27.33.22.54-.05.25-.26.49-.43.67-.23.24-2.17,2.33-2.18,2.33l-.88-.83Z"/>
    <path class="cls-2" d="M25,10.17h0c-8.19,0-14.83,6.63-14.83,14.83s6.64,14.83,14.83,14.83,14.83-6.63,14.83-14.83-6.64-14.83-14.83-14.83M25,25v14.01c-7.73,0-14.01-6.29-14.01-14.01h14.01v-14.01c7.73,0,14.01,6.29,14.01,14.01h-14.01Z"/>
  </g>
</svg>