<?xml version="1.0" encoding="UTF-8"?>
<svg id="Layer_1" data-name="Layer 1" xmlns="http://www.w3.org/2000/svg" viewBox="0 0 191.49 50">
  <defs>
    <style>
      .cls-1 {
        fill: #121212;
      }
    </style>
  </defs>
  <path class="cls-1" d="M1.04,33.71c-.68,0-1.04-.38-1.04-1.16v-15.46c0-.78.35-1.19,1.04-1.19h4.66c1.77,0,3.24.53,4.43,1.59,1.19,1.06,1.8,2.48,1.8,4.23v6.2c0,1.75-.61,3.16-1.8,4.23-1.19,1.04-2.66,1.57-4.43,1.57H1.04ZM3.69,30.57h2.05c1.52,0,2.48-1.09,2.48-2.83v-5.87c0-1.75-.96-2.83-2.48-2.83h-2.05v11.54Z"/>
  <path class="cls-1" d="M18.55,32.85c0,.71-.61,1.06-1.85,1.06s-1.85-.35-1.85-1.06v-16.09c0-.71.61-1.06,1.85-1.06s1.85.35,1.85,1.06v16.09Z"/>
  <path class="cls-1" d="M30.13,21.26c0-1.62-.78-2.53-2.1-2.53s-2.1.91-2.1,2.53v11.59c0,.71-.61,1.06-1.85,1.06s-1.85-.35-1.85-1.06v-11.51c0-1.72.51-3.11,1.54-4.15,1.04-1.06,2.4-1.59,4.05-1.59s3.26.76,4.15,1.9c.89-1.14,2.43-1.9,4.15-1.9s2.99.53,4.02,1.59c1.04,1.04,1.57,2.43,1.57,4.15v11.51c0,.71-.61,1.06-1.85,1.06s-1.85-.35-1.85-1.06v-11.59c0-1.62-.78-2.53-2.1-2.53s-2.1.91-2.1,2.53v11.59c0,.71-.61,1.06-1.85,1.06s-1.85-.35-1.85-1.06v-11.59Z"/>
  <path class="cls-1" d="M48.96,22.93h5.14c.63,0,.94.53.94,1.57s-.3,1.57-.94,1.57h-5.14v4.5h5.9c.63,0,.94.53.94,1.57s-.3,1.57-.94,1.57h-8.63c-.63,0-.96-.38-.96-1.14v-15.54c0-.76.33-1.14.96-1.14h8.5c.63,0,.94.53.94,1.57s-.3,1.57-.94,1.57h-5.77v3.9Z"/>
  <path class="cls-1" d="M62.21,32.85c0,.71-.61,1.06-1.85,1.06s-1.85-.35-1.85-1.06v-11.44c0-1.75.58-3.16,1.77-4.23,1.19-1.06,2.68-1.59,4.45-1.59s3.24.53,4.43,1.59c1.19,1.06,1.8,2.48,1.8,4.23v11.44c0,.71-.61,1.06-1.85,1.06s-1.85-.35-1.85-1.06v-11.26c0-1.75-1.01-2.86-2.53-2.86s-2.53,1.11-2.53,2.86v11.26Z"/>
  <path class="cls-1" d="M73.68,28.9c0-.71.61-1.06,1.85-1.06s1.85.35,1.85,1.06v.08c0,1.11.96,1.9,2.3,1.9,1.44,0,2.28-.68,2.28-1.87,0-1.32-.83-2.05-3.47-2.88-3.21-1.04-4.83-2.83-4.83-5.36,0-1.59.56-2.83,1.65-3.77,1.09-.94,2.48-1.39,4.15-1.39s3.11.46,4.2,1.37c1.09.91,1.64,2,1.64,3.26v.46c0,.71-.61,1.06-1.85,1.06s-1.85-.35-1.85-1.06v-.13c0-.53-.2-.96-.58-1.29-.38-.35-.91-.53-1.57-.53s-1.16.15-1.54.46c-.35.3-.53.73-.53,1.26,0,1.09.94,2,3.37,2.83,3.31,1.14,4.96,2.68,4.96,5.49,0,3.16-2.23,5.24-6,5.24-1.8,0-3.24-.48-4.35-1.47-1.11-.99-1.67-2.13-1.67-3.42v-.23Z"/>
  <path class="cls-1" d="M91.92,32.85c0,.71-.61,1.06-1.85,1.06s-1.85-.35-1.85-1.06v-16.09c0-.71.61-1.06,1.85-1.06s1.85.35,1.85,1.06v16.09Z"/>
  <path class="cls-1" d="M107.25,28.19c0,1.75-.61,3.16-1.8,4.23-1.19,1.06-2.66,1.59-4.4,1.59s-3.24-.53-4.43-1.59c-1.19-1.06-1.77-2.48-1.77-4.23v-6.78c0-1.75.58-3.16,1.77-4.23,1.19-1.06,2.68-1.59,4.43-1.59s3.21.53,4.4,1.59c1.19,1.06,1.8,2.48,1.8,4.23v6.78ZM103.56,21.59c0-1.75-.99-2.86-2.5-2.86s-2.5,1.11-2.5,2.86v6.43c0,1.75.99,2.86,2.5,2.86s2.5-1.11,2.5-2.86v-6.43Z"/>
  <path class="cls-1" d="M114.23,32.85c0,.71-.61,1.06-1.85,1.06s-1.85-.35-1.85-1.06v-11.44c0-1.75.58-3.16,1.77-4.23,1.19-1.06,2.68-1.59,4.45-1.59s3.24.53,4.43,1.59c1.19,1.06,1.8,2.48,1.8,4.23v11.44c0,.71-.61,1.06-1.85,1.06s-1.85-.35-1.85-1.06v-11.26c0-1.75-1.01-2.86-2.53-2.86s-2.53,1.11-2.53,2.86v11.26Z"/>
  <path class="cls-1" d="M125.69,28.9c0-.71.61-1.06,1.85-1.06s1.85.35,1.85,1.06v.08c0,1.11.96,1.9,2.3,1.9,1.44,0,2.28-.68,2.28-1.87,0-1.32-.84-2.05-3.47-2.88-3.21-1.04-4.83-2.83-4.83-5.36,0-1.59.56-2.83,1.65-3.77,1.09-.94,2.48-1.39,4.15-1.39s3.11.46,4.2,1.37c1.09.91,1.64,2,1.64,3.26v.46c0,.71-.61,1.06-1.85,1.06s-1.85-.35-1.85-1.06v-.13c0-.53-.2-.96-.58-1.29-.38-.35-.91-.53-1.57-.53s-1.17.15-1.54.46c-.35.3-.53.73-.53,1.26,0,1.09.94,2,3.37,2.83,3.31,1.14,4.96,2.68,4.96,5.49,0,3.16-2.23,5.24-6,5.24-1.8,0-3.24-.48-4.35-1.47-1.11-.99-1.67-2.13-1.67-3.42v-.23Z"/>
  <path class="cls-1" d="M166.49,50c-13.78,0-25-11.22-25-25S152.7,0,166.49,0s25,11.21,25,25-11.22,25-25,25M166.49,2.27c-12.54,0-22.73,10.2-22.73,22.73s10.2,22.74,22.73,22.74,22.74-10.2,22.74-22.74-10.2-22.73-22.74-22.73Z"/>
  <path class="cls-1" d="M153.97,24.21l4.88-5.42c.26-.28.45-.54.45-.92,0-.47-.38-.8-.9-.8h-9.04c-.47,0-.88.38-.88.85s.4.83.88.83h7.34l-3.65,4.06c-.26.26-.38.5-.38.73,0,.45.38.8.83.8l.39-.07.08-.05Z"/>
  <path class="cls-1" d="M153.52,24.52c-.59,0-1.05-.45-1.05-.99,0-.29.14-.57.43-.87l3.36-3.74h-6.92c-.59,0-1.06-.46-1.06-1.02s.48-1.04,1.06-1.04h9.05c.63,0,1.09.42,1.09.99,0,.47-.25.78-.5,1.05l-4.88,5.42-.25-.23.06.34-.4.07h0ZM149.35,17.25c-.37,0-.69.3-.69.66s.3.64.69.64h7.76l-3.93,4.38c-.23.22-.33.42-.33.61,0,.34.29.62.64.62l.34-.07,4.88-5.42c.26-.28.4-.49.4-.8,0-.36-.29-.62-.71-.62h-9.05Z"/>
  <path class="cls-1" d="M161.69,24.61c-.32,0-.63-.17-.8-.45-.21-.34-.18-.77.07-1.08l5.86-7.33c.33-.41.92-.47,1.33-.15.41.33.47.92.15,1.33l-3.9,4.88c.07-.09.48-.1.6-.12.2-.03.41-.04.62-.05,1.06,0,2.05.35,3.02.73l.39.15c.49.19.73.73.55,1.22-.18.49-.73.73-1.22.55-.13-.05-.27-.1-.4-.16-.65-.26-1.35-.53-2.07-.58-.77-.06-1.49.22-2.21.49-.38.14-.77.29-1.18.4-.2.06-.4.11-.6.15-.06.01-.13.02-.19.02"/>
  <path class="cls-1" d="M161.69,24.8c-.39,0-.76-.21-.96-.54-.25-.4-.22-.93.08-1.3l5.85-7.32c.39-.49,1.1-.57,1.59-.18.24.19.38.46.42.76.03.3-.05.6-.24.83,0,0-2.63,3.29-3.57,4.47.04,0,.07,0,.09,0,.21-.03.42-.05.64-.05,1.08-.02,2.07.34,3.09.74l.39.15c.28.11.51.32.63.59.12.28.13.58.03.87-.11.28-.32.51-.59.63-.28.12-.58.13-.87.03-.13-.05-.27-.1-.4-.16-.67-.26-1.33-.52-2.02-.57-.72-.05-1.41.21-2.08.46l-.05.02c-.39.15-.78.29-1.19.41-.2.06-.4.11-.61.15-.07.02-.15.02-.23.02M167.54,15.58c-.22,0-.44.1-.59.28l-5.85,7.33c-.2.25-.22.6-.05.87.16.27.49.41.8.34.2-.04.39-.09.58-.14.4-.11.78-.25,1.15-.39l.06-.02c.71-.27,1.44-.54,2.24-.48.74.05,1.43.32,2.1.59.16.06.29.11.43.17.19.07.39.06.58-.02.18-.08.32-.23.4-.42.07-.19.07-.39-.02-.58-.08-.18-.23-.33-.42-.4l-.39-.15c-.97-.38-1.92-.71-2.91-.71h-.04c-.2,0-.4.02-.59.04-.03,0-.07,0-.12.01-.09,0-.32.03-.38.06l-.28-.25s0,0,.01-.01h0s0,0,.01-.01c.09-.11.62-.78,3.89-4.87.13-.16.18-.35.16-.55-.02-.2-.12-.38-.28-.51-.14-.11-.31-.16-.47-.16Z"/>
  <path class="cls-1" d="M164.91,33.75c-.09,0-.18-.01-.27-.04-.65-.2-1.26-.52-1.8-.96-1.3-1.07-1.94-2.66-2.5-4.05l-.14-.34c-1.79-4.41-5.16-3.91-6.27-3.74-.1.02-.19.03-.24.03-.52.05-.98-.32-1.04-.84-.05-.52.32-.98.84-1.04.04,0,.09-.01.16-.02,4.92-.74,7.23,2.26,8.3,4.9l.14.34c.5,1.24,1.02,2.53,1.95,3.3.34.28.73.49,1.14.61.5.15.78.68.63,1.18-.12.41-.5.67-.9.67"/>
  <path class="cls-1" d="M164.91,33.94c-.11,0-.22-.02-.33-.05-.68-.2-1.31-.54-1.87-1-1.34-1.1-1.99-2.71-2.56-4.13l-.14-.34c-1.74-4.28-5-3.79-6.07-3.63-.11.02-.19.03-.25.03-.3.03-.6-.06-.83-.25-.23-.19-.38-.46-.41-.76-.06-.62.39-1.18,1.01-1.24.03,0,.07,0,.11-.02,5.07-.76,7.44,2.3,8.54,5.01l.14.35c.49,1.22,1,2.49,1.9,3.22.32.27.68.46,1.07.58.29.09.53.28.67.55.14.27.18.57.09.86-.14.48-.59.81-1.08.81M155.17,24.31c1.55,0,3.83.57,5.21,3.97l.14.34c.55,1.37,1.18,2.93,2.45,3.98.52.43,1.1.74,1.73.93.39.12.82-.12.94-.51.06-.19.04-.4-.06-.58-.09-.18-.25-.31-.45-.36-.44-.13-.84-.35-1.21-.65-.97-.8-1.5-2.11-2.01-3.38l-.14-.34c-1.05-2.58-3.3-5.5-8.1-4.78-.09.01-.13.02-.17.02-.41.04-.72.41-.67.83.02.2.12.38.28.51.16.13.35.19.55.16.06,0,.14-.02.23-.03.29-.04.73-.11,1.26-.11Z"/>
  <path class="cls-1" d="M166.08,33.85c-.73,0-1.43-.13-2.11-.38-.49-.18-.74-.73-.55-1.21.18-.49.73-.74,1.21-.56.46.17.95.26,1.45.26,2.29,0,4.16-1.87,4.16-4.16,0-1.94-1.31-3.6-3.19-4.05-.51-.12-.82-.63-.7-1.14.12-.51.63-.82,1.14-.7,2.74.65,4.65,3.07,4.65,5.89,0,3.34-2.71,6.05-6.05,6.05"/>
  <path class="cls-1" d="M166.08,34.04c-.75,0-1.48-.13-2.18-.39-.59-.22-.88-.87-.67-1.46.22-.59.87-.89,1.46-.67.44.16.91.25,1.39.25,2.19,0,3.97-1.78,3.97-3.97,0-1.85-1.25-3.44-3.05-3.86-.61-.15-.99-.76-.84-1.36.07-.29.25-.54.51-.7.26-.16.56-.21.86-.14,2.82.67,4.79,3.17,4.79,6.07,0,3.44-2.8,6.24-6.24,6.24M164.3,31.83c-.31,0-.6.19-.71.49-.15.39.05.83.45.97.65.24,1.34.37,2.04.37,3.23,0,5.86-2.63,5.86-5.86,0-2.73-1.85-5.07-4.5-5.7-.2-.05-.4-.01-.57.09-.17.11-.29.27-.34.47-.1.4.16.81.56.91,1.97.47,3.34,2.21,3.34,4.23,0,2.4-1.95,4.35-4.35,4.35-.52,0-1.03-.09-1.52-.27-.09-.03-.18-.05-.26-.05Z"/>
  <path class="cls-1" d="M179.17,33.92h-.51c-3.14,0-5.7-2.56-5.7-5.7v-6.4c0-3.14,2.56-5.7,5.7-5.7h.51c3.14,0,5.7,2.56,5.7,5.7v6.4c0,3.14-2.56,5.7-5.7,5.7M178.66,18.01c-2.1,0-3.81,1.71-3.81,3.81v6.4c0,2.1,1.71,3.81,3.81,3.81h.51c2.1,0,3.81-1.71,3.81-3.81v-6.4c0-2.1-1.71-3.81-3.81-3.81h-.51Z"/>
  <path class="cls-1" d="M179.17,34.11h-.51c-3.25,0-5.89-2.64-5.89-5.89v-6.4c0-3.25,2.64-5.89,5.89-5.89h.51c3.25,0,5.89,2.64,5.89,5.89v6.4c0,3.25-2.64,5.89-5.89,5.89M178.66,16.31c-3.04,0-5.51,2.47-5.51,5.51v6.4c0,3.04,2.47,5.51,5.51,5.51h.51c3.04,0,5.51-2.47,5.51-5.51v-6.4c0-3.04-2.47-5.51-5.51-5.51h-.51ZM179.17,32.22h-.51c-2.21,0-4-1.79-4-4v-6.4c0-2.2,1.79-4,4-4h.51c2.21,0,4,1.79,4,4v6.4c0,2.21-1.79,4-4,4ZM178.66,18.2c-2,0-3.62,1.62-3.62,3.62v6.4c0,2,1.62,3.62,3.62,3.62h.51c2,0,3.62-1.62,3.62-3.62v-6.4c0-2-1.62-3.62-3.62-3.62h-.51Z"/>
  <path class="cls-1" d="M153.21,33.85c-1.13,0-2.25-.34-3.22-1-1.54-1.05-2.47-2.77-2.47-4.61,0-.52.42-.94.94-.94s.94.42.94.94c0,1.23.6,2.34,1.64,3.04,1.05.71,2.36.87,3.52.41,1.58-.63,2.22-1.65,2.86-3.32.18-.49.73-.73,1.22-.55.49.19.73.73.55,1.22-.77,2.01-1.73,3.53-3.93,4.41-.66.26-1.36.39-2.06.39"/>
  <path class="cls-1" d="M153.21,34.04c-1.18,0-2.33-.35-3.32-1.03-1.6-1.08-2.55-2.86-2.55-4.76,0-.63.51-1.13,1.13-1.13s1.13.51,1.13,1.13c0,1.16.57,2.22,1.56,2.89,1,.68,2.25.82,3.34.39,1.51-.6,2.14-1.59,2.75-3.21.11-.28.32-.51.6-.63.28-.12.59-.13.87-.02.28.11.51.32.63.6.12.27.13.58.02.87-.78,2.06-1.77,3.62-4.03,4.51-.68.27-1.4.41-2.13.41M148.47,27.49c-.42,0-.76.34-.76.76,0,1.77.89,3.44,2.38,4.45.93.63,2,.96,3.11.96.69,0,1.35-.13,1.99-.38,2.14-.85,3.07-2.33,3.82-4.3.07-.19.07-.39-.02-.58-.08-.18-.23-.32-.42-.4-.19-.07-.39-.07-.58.02-.19.08-.33.23-.4.42-.66,1.72-1.32,2.78-2.97,3.43-1.21.48-2.59.32-3.69-.43-1.09-.74-1.72-1.91-1.72-3.2,0-.42-.34-.76-.76-.76Z"/>
</svg>