<?xml version="1.0" encoding="UTF-8"?>
<svg id="Layer_1" data-name="Layer 1" xmlns="http://www.w3.org/2000/svg" viewBox="0 0 189.45 50">
  <defs>
    <style>
      .cls-1 {
        fill: #121212;
      }

      .cls-2 {
        fill: #f5f5f5;
      }
    </style>
  </defs>
  <path class="cls-1" d="M6.29,16.01v17.85l5.99,3.48-2.22-11.72,6.63,1.52-1.4,11.92,5.46,3.26V7.78s-14.46,8.23-14.46,8.23ZM11.58,23.67l1.27-7.46,1.2-.37,1.01,8.4-3.47-.57Z"/>
  <g>
    <path class="cls-2" d="M65.81,16.52h-1.84l-9.66,16.74h5.52l5.06-8.76,5.06,8.76h5.52l-9.66-16.74Z"/>
    <path class="cls-2" d="M84.62,16.52v8.97c0,.83-.29,1.53-.87,2.12-.58.58-1.29.87-2.12.87s-1.53-.29-2.12-.87c-.58-.58-.87-1.29-.87-2.12v-8.97h-4.78v8.97c0,2.15.76,3.98,2.28,5.49,1.52,1.52,3.35,2.28,5.49,2.28s3.97-.76,5.49-2.28c1.52-1.52,2.28-3.35,2.28-5.49v-8.97h-4.78Z"/>
    <path class="cls-2" d="M103.69,18.97c-1.63-1.63-3.61-2.45-5.92-2.45h-7.17v16.74h7.17c2.31,0,4.28-.82,5.92-2.45,1.63-1.63,2.45-3.61,2.45-5.92s-.82-4.28-2.45-5.92ZM100.3,27.42c-.7.7-1.55,1.05-2.53,1.05h-2.39v-7.17h2.39c.99,0,1.83.35,2.53,1.05.7.7,1.05,1.55,1.05,2.53s-.35,1.83-1.05,2.53Z"/>
    <path class="cls-2" d="M107.33,16.52v16.74h4.78v-16.74h-4.78Z"/>
    <path class="cls-2" d="M127.6,18.97c-1.63-1.63-3.61-2.45-5.92-2.45s-4.28.82-5.92,2.45c-1.63,1.63-2.45,3.61-2.45,5.92s.82,4.28,2.45,5.92c1.63,1.63,3.61,2.45,5.92,2.45s4.28-.82,5.92-2.45c1.63-1.63,2.45-3.61,2.45-5.92s-.82-4.28-2.45-5.92ZM124.21,27.42c-.7.7-1.55,1.05-2.53,1.05s-1.83-.35-2.53-1.05c-.7-.7-1.05-1.55-1.05-2.53s.35-1.83,1.05-2.53c.7-.7,1.55-1.05,2.53-1.05s1.83.35,2.53,1.05c.7.7,1.05,1.55,1.05,2.53s-.35,1.83-1.05,2.53Z"/>
    <path class="cls-2" d="M142,16.52v5.98h-5.98v-5.98h-4.78v16.74h4.78v-5.98h5.98v5.98h4.78v-16.74h-4.78Z"/>
    <path class="cls-2" d="M147.98,16.52v16.74h4.78v-16.74h-4.78Z"/>
    <path class="cls-2" d="M168.99,16.52l-5.06,8.76-5.06-8.76h-5.52l9.66,16.74h1.84l9.66-16.74h-5.52Z"/>
    <path class="cls-2" d="M189.45,21.3v-4.78h-14.35v16.74h14.35v-4.78h-9.56v-1.2h7.17v-4.78h-7.17v-1.2h9.56Z"/>
  </g>
  <path class="cls-2" d="M0,37.5V12.5L21.65,0l21.65,12.5v25l-21.65,12.5L0,37.5Z"/>
  <g>
    <path class="cls-2" d="M3.56,35.45V14.55L21.65,4.11l18.09,10.45v20.89l-18.09,10.45L3.56,35.45ZM19.8,40.63V9.43s-12.54,7.14-12.54,7.14v16.75l3.7,2.15-2.1-11.1,8.9,2.03-1.43,12.16,3.48,2.08ZM23.52,40.44l3.64-2.09-1.46-7.84,9.29-3.27-2.32,7.92,3.37-1.95v-16.63s-3.01-1.74-3.01-1.74l1.51,11.84-8.6,1.54,1.41-16.65-3.86-2.23.02,31.1Z"/>
    <path class="cls-1" d="M21.65,5.21l17.14,9.89v19.79l-17.14,9.89-17.14-9.89V15.11L21.65,5.21M22.56,42.09l5.66-3.24-1.43-7.7,6.76-2.38-2.47,8.42,5.92-3.42v-17.74s-5.16-2.98-5.16-2.98l1.64,12.85-6.47,1.16,1.36-16.02-5.83-3.36.02,34.41M12.28,37.35l-2.22-11.72,6.63,1.52-1.4,11.92,5.46,3.26V7.78s-14.46,8.23-14.46,8.23v17.85l5.99,3.48M21.65,3l-.96.55L3.56,13.45l-.96.55v22l.96.55,17.14,9.89.96.55.96-.55,17.14-9.89.96-.55V14l-.96-.55L22.61,3.56l-.96-.55h0ZM24.48,38.79l-.02-27.79,1.9,1.1-1.26,14.81-.21,2.48,2.32-.41-1.05.37-1.55.54.3,1.61,1.18,6.37-1.62.93h0ZM8.21,17.12l10.63-6.05v27.87s-1.5-.9-1.5-.9l1.26-10.69.2-1.71-1.68-.38-6.63-1.52-2.28-.52v-6.12h0ZM35.1,23.44l-.87-6.8.87.5v6.3h0ZM8.21,32.76v-6.63l1.41,7.45-1.41-.82h0ZM34.27,33.14l.83-2.83v2.35s-.83.48-.83.48h0Z"/>
  </g>
  <polygon class="cls-1" points="37.02 16.03 37.01 33.76 31.09 37.18 33.55 28.76 26.79 31.14 28.23 38.85 22.56 42.09 22.54 7.68 28.37 11.04 27.01 27.06 33.48 25.9 31.85 13.05 37.02 16.03"/>
  <path class="cls-1" d="M6.29,16.01v17.85l5.99,3.48-2.22-11.72,6.63,1.52-1.4,11.92,5.46,3.26V7.78s-14.46,8.23-14.46,8.23ZM11.58,23.67l1.27-7.46,1.2-.37,1.01,8.4-3.47-.57Z"/>
  <polygon class="cls-2" points="15.05 24.25 11.58 23.67 12.84 16.21 14.04 15.84 15.05 24.25"/>
</svg>