<?xml version="1.0" encoding="UTF-8"?>
<svg id="Layer_1" data-name="Layer 1" xmlns="http://www.w3.org/2000/svg" xmlns:xlink="http://www.w3.org/1999/xlink" viewBox="0 0 235.01 50">
  <defs>
    <style>
      .cls-1 {
        fill: none;
      }

      .cls-2 {
        fill: #6d6e71;
      }

      .cls-3 {
        clip-path: url(#clippath);
      }
    </style>
    <clipPath id="clippath">
      <rect class="cls-1" width="50" height="50"/>
    </clipPath>
  </defs>
  <path class="cls-2" d="M85.05,15.05c0,3.26-2.02,5.9-7.61,5.9h-9.94V.94h10.09c4.63,0,6.91,2.47,6.91,5.34,0,1.74-.73,3.48-2.44,4.33,2.16.9,3.01,2.84,3.01,4.44M72.77,5.24v3.79h4.3c1.15,0,1.97-.81,1.97-1.94s-.87-1.85-1.97-1.85h-4.3ZM79.6,14.77c0-1.1-.76-1.83-2.11-1.83h-4.72v3.71h4.69c1.4,0,2.13-.62,2.13-1.88"/>
  <path class="cls-2" d="M106.09,20.95l-.45-13.32c-.31,1.18-.65,2.39-1.04,3.6l-3.15,9.72h-5.11l-3.15-9.72c-.39-1.18-.7-2.36-1.01-3.54l-.45,13.26h-5.08l.81-20h7.3l4.13,13.85,4.13-13.85h7.3l.81,20h-5.06Z"/>
  <path class="cls-2" d="M141.51.94c-1.63,6.77-3.37,13.18-5.45,20h-6.43l-2.75-12.56-2.78,12.56h-6.43c-2.08-6.83-3.82-13.23-5.48-20h5.7c.95,4.27,2.05,8.85,3.17,13.29l2.84-13.29h5.93l2.84,13.29c1.12-4.44,2.22-9.02,3.18-13.29h5.67Z"/>
  <path class="cls-2" d="M86.12,49.05l-.45-13.31c-.31,1.18-.65,2.39-1.04,3.6l-3.15,9.72h-5.11l-3.15-9.72c-.39-1.18-.7-2.36-1.01-3.54l-.45,13.26h-5.08l.81-20h7.3l4.13,13.85,4.13-13.85h7.3l.81,20h-5.06Z"/>
  <path class="cls-2" d="M92.63,39.05c0-6.38,5.34-10.45,11.09-10.45s11.09,4.07,11.09,10.45-5.34,10.45-11.09,10.45-11.09-4.07-11.09-10.45M109.37,39.05c0-3.15-2.53-5.67-5.65-5.67s-5.65,2.53-5.65,5.67,2.5,5.67,5.65,5.67,5.65-2.5,5.65-5.67"/>
  <polygon class="cls-2" points="131.82 33.58 126 33.58 126 49.05 120.66 49.05 120.66 33.58 114.88 33.58 114.88 29.06 131.82 29.06 131.82 33.58"/>
  <path class="cls-2" d="M131.87,39.05c0-6.38,5.34-10.45,11.09-10.45s11.09,4.07,11.09,10.45-5.34,10.45-11.09,10.45-11.09-4.07-11.09-10.45M148.61,39.05c0-3.15-2.53-5.67-5.65-5.67s-5.65,2.53-5.65,5.67,2.5,5.67,5.65,5.67,5.65-2.5,5.65-5.67"/>
  <path class="cls-2" d="M173.39,48.94v.11h-5.73c-.36-1.04-.79-2.14-1.32-3.26-.51-1.04-1.1-2.05-1.66-2.87h-3.34v6.12h-5.34v-20h8.76c5.65,0,7.75,3.34,7.75,6.57,0,2.36-1.04,4.24-3.01,5.51.87,1.26,1.6,2.53,2.19,3.76.65,1.32,1.21,2.72,1.69,4.04M161.34,38.55h3.4c1.43,0,2.53-.93,2.53-2.56s-1.1-2.56-2.53-2.56h-3.4v5.11Z"/>
  <path class="cls-2" d="M192.8,48.94v.11h-5.73c-.36-1.04-.79-2.14-1.32-3.26-.51-1.04-1.1-2.05-1.66-2.87h-3.34v6.12h-5.34v-20h8.76c5.65,0,7.75,3.34,7.75,6.57,0,2.36-1.04,4.24-3.01,5.51.87,1.26,1.6,2.53,2.19,3.76.65,1.32,1.21,2.72,1.68,4.04M180.75,38.55h3.4c1.43,0,2.53-.93,2.53-2.56s-1.1-2.56-2.53-2.56h-3.4v5.11Z"/>
  <path class="cls-2" d="M208.02,45.18h-7.47c-.34,1.29-.67,2.58-.98,3.88h-5.37c1.77-7.3,3.82-13.76,6.49-20h7.25c2.67,6.24,4.72,12.7,6.46,20h-5.39c-.31-1.29-.65-2.58-.98-3.88M206.73,40.54c-.79-2.78-1.63-5.36-2.44-7.44-.84,2.08-1.66,4.66-2.47,7.44h4.92Z"/>
  <path class="cls-2" d="M235.01,39.05c0,5.65-4.33,10-11.35,10h-7.61v-20h7.61c7.02,0,11.35,4.35,11.35,10M229.56,39.05c0-3.62-2.81-5.39-5.9-5.39h-2.28v10.79h2.28c3.09,0,5.9-1.77,5.9-5.39"/>
  <g class="cls-3">
    <path class="cls-2" d="M25,0C11.19,0,0,11.19,0,25s11.19,25,25,25,25-11.19,25-25S38.81,0,25,0M48.37,25c0,12.91-10.46,23.38-23.38,23.38S1.63,37.91,1.63,25,12.09,1.62,25,1.62s23.38,10.47,23.38,23.38"/>
    <path class="cls-2" d="M37.12,14.39c.34.36.83.95,1.1,1.31l5.06-3.21c-.25-.33-.66-.83-.96-1.19l-3.21,2.12-.22.19.16-.24,1.42-2.83-1-1-2.83,1.42-.24.16.19-.22,2.12-3.2c-.37-.32-.73-.61-1.19-.96l-3.21,5.06c.41.31.94.77,1.29,1.09l3.03-1.57.19-.14-.14.19-1.57,3.03Z"/>
    <path class="cls-2" d="M25.63,7.98l1.38-3.1.09-.27-.03.29.15,4.14c.49.05.99.11,1.48.19l-.23-6.13c-.69-.08-1.38-.13-2.07-.16l-1.36,3.38-.05.25-.05-.25-1.36-3.38c-.69.03-1.38.08-2.07.16l-.23,6.13c.49-.08,1-.15,1.48-.19l.14-4.14-.02-.29.09.27,1.38,3.1h1.26Z"/>
    <path class="cls-2" d="M14.44,12.87c.8-.84,1.25-1.82.45-2.74-.44-.51-1.17-.62-1.77-.37l-.06.02.02-.05c.09-.24.15-1-.5-1.53-.32-.26-.72-.35-1.12-.31-.75.08-1.33.59-2.9,2.34-.47.53-1.17,1.36-1.58,1.9,0,0,4.32,4.1,4.32,4.1,1.44-1.59,2.02-2.18,3.15-3.37M8.8,11.87c.87-1.06,1.8-2.03,2.22-2.41.13-.12.28-.24.45-.29.28-.08.58.12.64.42.07.29-.12.57-.32.8-.46.52-2.15,2.28-2.15,2.28l-.84-.8M10.5,13.47s1.64-1.74,2.18-2.29c.21-.22.35-.35.5-.43.19-.09.4-.11.58.01.18.12.27.33.22.54-.05.25-.26.49-.43.67-.23.24-2.17,2.33-2.18,2.33l-.88-.83Z"/>
    <path class="cls-2" d="M25,10.17h0c-8.19,0-14.83,6.63-14.83,14.83s6.64,14.83,14.83,14.83,14.83-6.63,14.83-14.83-6.64-14.83-14.83-14.83M25,25v14.01c-7.73,0-14.01-6.29-14.01-14.01h14.01v-14.01c7.73,0,14.01,6.29,14.01,14.01h-14.01Z"/>
  </g>
</svg>