<?xml version="1.0" encoding="UTF-8"?>
<svg id="Layer_1" data-name="Layer 1" xmlns="http://www.w3.org/2000/svg" viewBox="0 0 372.63 50">
  <defs>
    <style>
      .cls-1 {
        fill: #121212;
      }
    </style>
  </defs>
  <path class="cls-1" d="M71.6,16.08c0,6.06,4.93,11,11,11h17.84c3.78,0,6.85,3.07,6.85,6.85s-3.07,6.85-6.85,6.85h-28.84v4.15h28.84c6.07,0,11-4.93,11-11s-4.93-10.99-11-10.99h-17.84c-3.78,0-6.85-3.07-6.85-6.85s3.07-6.85,6.85-6.85h28.84v-4.15h-28.84c-6.07,0-11,4.93-11,11h0Z"/>
  <path class="cls-1" d="M125.16,25c0,10.98,8.94,19.92,19.92,19.92h19.92v-4.15h-19.92c-7.97,0-14.61-5.85-15.64-13.7h35.55v-4.15h-35.55c1.03-7.84,7.66-13.7,15.64-13.7h19.92v-4.15h-19.92c-10.99,0-19.92,8.94-19.92,19.92Z"/>
  <path class="cls-1" d="M182.88,5.09h-4.15v39.83h39.83v-4.15h-35.69V5.09Z"/>
  <path class="cls-1" d="M225.67,25c0,10.98,8.94,19.92,19.92,19.92h19.92v-4.15h-19.92c-7.97,0-14.61-5.85-15.64-13.7h35.55v-4.15h-35.55c1.03-7.84,7.66-13.7,15.64-13.7h19.92v-4.15h-19.92c-10.98,0-19.92,8.94-19.92,19.92Z"/>
  <path class="cls-1" d="M279.23,25c0,10.98,8.94,19.92,19.92,19.92h19.92v-4.15h-19.92c-8.7,0-15.77-7.07-15.77-15.77s7.07-15.77,15.77-15.77h19.92v-4.15h-19.92c-10.98,0-19.92,8.94-19.92,19.92Z"/>
  <path class="cls-1" d="M332.79,5.09v4.15h17.84v35.69h4.15V9.23h17.84v-4.15h-39.83Z"/>
  <path class="cls-1" d="M49.77,16.66c-.06-.73-.14-1.46-.62-2.07-.43-.54-.84-1.09-1.29-1.63-1.86-2.25-3.85-4.37-5.92-6.43-1.87-1.86-3.77-3.68-5.85-5.32-.39-.31-.82-.53-1.31-.6-.6-.09-1.21-.16-1.82-.23-1.53-.16-3.08-.23-4.63-.31-.16,0-.33,0-.49,0h-.34c-.1,0-.19,0-.29,0h-.44c-.21,0-.43,0-.64,0l-1.57-.02c-.23,0-.46,0-.69-.01-.16,0-.33,0-.49,0h-.87C22.42,0,22.32,0,22.22,0,22.2,0,22.18,0,22.15,0c-1.96.04-3.91.12-5.87.32-.61.06-1.18.21-1.68.58-.87.66-1.72,1.34-2.54,2.05-2.76,2.39-5.39,4.93-7.89,7.6-1.03,1.1-2.05,2.23-2.98,3.42-.28.37-.5.76-.57,1.22-.14.87-.23,1.74-.31,2.62-.12,1.33-.17,2.66-.25,4,0,.16,0,.32,0,.49v1.27c-.02.73-.03,1.47-.04,2.2,0,.16,0,.32,0,.49v.73c0,.11,0,.23,0,.34v.44c.04,1.9.12,3.79.26,5.68.07.86.26,1.65.86,2.3.37.41.7.84,1.04,1.26,1.45,1.75,3,3.41,4.58,5.04,2.18,2.25,4.42,4.44,6.85,6.44.68.56,1.41.88,2.29.98,1.72.2,3.45.33,5.18.41,4.22.18,8.45.19,12.66-.21.62-.06,1.21-.2,1.71-.57,1.17-.87,2.29-1.81,3.38-2.78,2.07-1.84,4.07-3.75,6-5.74,1.38-1.43,2.72-2.89,3.97-4.44.35-.44.6-.92.69-1.49.28-1.91.41-3.82.49-5.74.17-4.1.19-8.19-.18-12.27M47.8,30.54c-.09,1.16-.19,2.33-.39,3.48-.06.38-.22.72-.46,1.03-1.12,1.5-2.38,2.88-3.67,4.22-1.84,1.91-3.74,3.74-5.73,5.49-.9.8-1.84,1.54-2.79,2.28-.63.5-1.36.64-2.12.72-2.63.27-5.26.25-7.71.25-2.32-.04-4.44-.11-6.56-.28-.76-.06-1.53-.15-2.29-.29-.45-.09-.85-.28-1.21-.56-1.48-1.15-2.85-2.41-4.19-3.71-2.27-2.2-4.46-4.47-6.47-6.91-.38-.47-.73-.96-1.11-1.42-.52-.61-.7-1.32-.77-2.1-.39-4.13-.34-8.27-.13-12.41.07-1.44.19-2.88.42-4.3.06-.35.2-.65.41-.94,1.22-1.63,2.62-3.12,4.04-4.57,2.05-2.11,4.18-4.14,6.44-6.05.64-.54,1.31-1.05,1.99-1.54.52-.38,1.11-.49,1.72-.56,2.46-.28,4.93-.29,7.4-.28,2.24,0,4.47.09,6.71.25.84.06,1.69.17,2.53.3.5.07.92.3,1.31.59,1.39,1.03,2.66,2.2,3.9,3.4,2.1,2.02,4.12,4.11,6.03,6.31.68.78,1.32,1.59,1.96,2.41.41.53.59,1.12.66,1.78.3,2.93.31,5.86.27,8.8-.02,1.53-.07,3.06-.19,4.59"/>
  <path class="cls-1" d="M23.74,25.06c-.08,6.51-.16,13.02-.24,19.53,0,.09,0,.17,0,.26,0,.22-.1.29-.31.28-1.08-.03-2.17-.07-3.25-.13-.41-.03-.81-.06-1.22-.09-.23-.01-.33-.12-.32-.35v-.21c.1-8.31.2-16.61.31-24.92,0-.18,0-.37,0-.55,0-.13.03-.31-.11-.34-.15-.03-.19.15-.24.26-.1.22-.19.44-.28.67-1.28,3.23-2.6,6.45-3.93,9.67-.26.63-.52,1.26-.79,1.89-.07.16-.11.39-.33.39-.2,0-.25-.21-.34-.36-1.01-1.89-1.98-3.79-2.95-5.69-.08-.15-.14-.4-.32-.35-.19.04-.14.29-.14.46-.08,3.25-.03,6.5.23,9.74.06.75.13,1.5.2,2.25,0,.06.01.12.01.18,0,.09,0,.18-.09.23-.09.05-.17-.02-.23-.07-.17-.16-.33-.33-.49-.5-1.22-1.31-2.41-2.66-3.55-4.04-.14-.17-.22-.35-.24-.59-.3-3.72-.27-7.45-.13-11.17.06-1.55.15-3.1.33-4.64.02-.16.06-.3.17-.42.91-1.08,1.87-2.12,2.85-3.13.22-.22.37-.2.52.1.55,1.12,1.09,2.24,1.63,3.36.6,1.25,1.19,2.5,1.79,3.75.01.03.02.05.03.07.06.09.11.22.23.23.14,0,.19-.13.24-.24.3-.74.6-1.47.89-2.22,1.73-4.33,3.42-8.67,5.08-13.02.07-.19.19-.29.4-.3,1.47-.07,2.94-.11,4.42-.1.41,0,.43.02.42.43-.08,6.56-.16,13.12-.24,19.69"/>
  <path class="cls-1" d="M26.31,25.08c.08-6.51.16-13.02.24-19.53,0-.09,0-.17,0-.26,0-.22.09-.31.31-.31,1.39.03,2.77.09,4.16.19.63.05,1.26.11,1.89.15.36.02.66.13.94.38,3.16,2.76,6.12,5.74,8.92,8.87.64.72,1.25,1.46,1.88,2.19.18.2.29.42.31.69.09,1.14.14,2.28.17,3.43.01.37-.03.41-.39.41-1.18.02-2.36.02-3.54-.02-.4-.01-.44-.04-.45-.45-.02-.52-.05-1.04-.06-1.56,0-.28-.09-.52-.28-.73-2.53-2.91-5.22-5.68-8.06-8.29-.12-.11-.23-.22-.36-.3-.18-.12-.32-.06-.37.14-.02.1-.03.21-.03.31-.12,9.85-.24,19.7-.37,29.54v.08c0,.15-.01.31.15.39.16.07.28-.05.39-.14,1-.85,1.97-1.73,2.92-2.63,1.87-1.76,3.67-3.58,5.41-5.48.29-.32.46-.65.46-1.09s.05-.85.08-1.27c.02-.34-.04-.41-.39-.42-.58,0-1.16-.01-1.74-.03-.34,0-.39-.06-.39-.4.01-1.18.03-2.36.05-3.54,0-.31.06-.37.36-.37,2.11.03,4.21.06,6.32.08.25,0,.34.11.33.35-.06,2.55-.14,5.1-.41,7.63-.03.26-.13.47-.3.67-3.07,3.53-6.39,6.79-9.93,9.84-.42.36-.86.7-1.28,1.07-.22.19-.47.23-.75.25-2.03.16-4.07.22-6.1.21-.31,0-.34-.04-.34-.43.06-5.24.13-10.47.19-15.71.02-1.32.03-2.63.05-3.95"/>
</svg>