<?xml version="1.0" encoding="UTF-8"?>
<svg id="Layer_1" data-name="Layer 1" xmlns="http://www.w3.org/2000/svg" viewBox="0 0 121.17 50">
  <defs>
    <style>
      .cls-1 {
        fill-rule: evenodd;
      }

      .cls-1, .cls-2 {
        fill: #121212;
      }
    </style>
  </defs>
  <g>
    <g>
      <path class="cls-1" d="M45.64,22.89h5.48v-9.71c.89.6,9.48,9.71,9.87,9.71h3.76V3.77h-5.48v9.71c-.4-.27-11.2-11.16-12.7-12.66-.25-.25-.58-.71-.92-.8v22.87Z"/>
      <path class="cls-1" d="M83.77,22.89h5.48v-9.64c.88.59,9.41,9.64,9.79,9.64h3.76V3.77h-5.25c-.36,0-.24.56-.24.94v8.77L83.79,0l-.02,22.89Z"/>
      <path class="cls-1" d="M66.08,22.89h16.37v-5.48h-10.89v-1.33h8.15v-5.1c.01-.5.05-.4-.46-.39h-7.69s0-1.32,0-1.32h10.89v-5.25c0-.18-.06-.24-.24-.24h-16.13v19.11Z"/>
      <path class="cls-1" d="M.76,22.89h16.37v-5.48H6.25l-.16-1.33h8.3v-5.48H6.25v-1.33h10.88v-5.25c0-.18-.05-.24-.23-.24H.76v19.11Z"/>
      <path class="cls-1" d="M27.96,12.18L18.48,2.74l-.02,20.15h5.48v-6.89l3.97,3.93c.52-.16,3.4-3.47,4.09-3.93v6.89h5.48V2.68l-9.53,9.5Z"/>
      <path class="cls-1" d="M38.82,4.01v18.87h5.48V3.77h-5.25c-.18,0-.23.06-.23.24Z"/>
    </g>
    <path class="cls-1" d="M104.13,3.77h16.37v5.48h-5.4v13.63h-5.48v-13.63h-5.48V3.77ZM112.72,20.51V6.88h5.4v-.72h-11.61v.72h5.48v13.63h.72Z"/>
  </g>
  <g>
    <polygon class="cls-1" points="44.7 47.66 44.7 42.87 39.48 42.87 39.48 47.66 36.6 47.66 36.6 35.76 39.48 35.76 39.48 40.29 44.7 40.29 44.7 35.76 47.58 35.76 47.58 47.66 44.7 47.66"/>
    <polygon class="cls-1" points="54.3 47.66 54.3 43.54 49.33 35.76 52.73 35.76 55.74 40.47 58.75 35.76 62.15 35.76 57.18 43.54 57.18 47.66 54.3 47.66"/>
    <path class="cls-1" d="M71.81,35.76v8.73c0,.33-.26.6-.61.6h-4.62v-9.33h-2.88v11.9h8.51c.76,0,1.37-.22,1.81-.66.44-.44.66-1.04.66-1.78v-9.47h-2.87Z"/>
    <path class="cls-1" d="M85.86,35.76h-8.51v11.9h2.88v-9.32h4.62c.37,0,.61.29.61.6v8.73h2.87v-9.47c0-.75-.23-1.34-.66-1.78-.45-.44-1.05-.66-1.81-.66Z"/>
    <path class="cls-1" d="M99.5,35.76h-8.51v11.91h8.51c.76,0,1.36-.22,1.8-.66.44-.44.67-1.04.67-1.78v-7.04c0-.74-.22-1.34-.67-1.78-.44-.43-1.05-.66-1.8-.66ZM99.1,38.95v5.52c0,.32-.24.62-.61.62h-4.61v-6.75h4.59c.38,0,.63.26.63.61Z"/>
    <path class="cls-1" d="M106.99,35.76c-.76,0-1.36.22-1.8.66-.44.43-.67,1.04-.67,1.78v9.47h2.87v-3.68h5.23v3.68h2.87v-11.9h-8.51ZM112.62,38.34v3.07h-5.23v-2.46c0-.29.23-.6.61-.6h4.62Z"/>
    <rect class="cls-2" x="118.3" y="35.76" width="2.88" height="11.9"/>
    <path class="cls-1" d="M16.45,50c9.09,0,16.46-3.71,16.46-8.29s-7.37-8.29-16.46-8.29S0,37.13,0,41.71s7.37,8.29,16.45,8.29ZM19.55,45.93c-.27.63-.75,1.96-1.83,2.5-.33.16-.73.24-1.1.25-.08,0-.14,0-.16,0-3.03,0-5.86-.42-8.23-1.13-.02,0-.07-.03-.09-.03-.22-.07-.33-.17-.33-.29,0-.11.06-.19.13-.26.03-.04.09-.08.15-.13.55-.45,2.19-1.62,5.29-2.79,1.09-.41,2.45-.91,3.87-1.21.84-.17,3.93-.64,2.3,3.1ZM27.86,37.57c.06-.1.14-.19.28-.2.08,0,.18.01.34.11,1.93,1.17,3.08,2.63,3.08,4.21,0,2.86-3.73,5.32-9.07,6.39-.34.06-.57.06-.65-.02-.05-.05-.07-.15,0-.26.03-.06.07-.11.14-.19,2.91-3.38,5.13-8.36,5.76-9.79.05-.1.1-.2.13-.26ZM13.4,37.47c.27-.62.75-1.96,1.83-2.49.33-.16.73-.24,1.1-.25.08,0,.14,0,.16,0,3.04,0,5.87.42,8.23,1.13.02,0,.07.03.09.03.22.07.33.17.33.29,0,.1-.06.19-.14.26-.03.03-.08.07-.15.13-.54.45-2.19,1.62-5.29,2.79-1.09.41-2.45.92-3.87,1.22-.84.17-3.94.63-2.3-3.11ZM10.42,35.32c.35-.07.57-.07.65.02.05.05.06.14,0,.25-.04.06-.07.11-.14.19-2.91,3.38-5.12,8.36-5.75,9.79-.05.1-.09.2-.13.26-.06.1-.14.19-.28.19-.08,0-.18-.01-.34-.11-1.93-1.17-3.08-2.63-3.08-4.22,0-2.86,3.74-5.32,9.08-6.39Z"/>
  </g>
</svg>