<?xml version="1.0" encoding="UTF-8"?>
<svg id="Layer_1" data-name="Layer 1" xmlns="http://www.w3.org/2000/svg" viewBox="0 0 128.67 50">
  <defs>
    <style>
      .cls-1 {
        fill: #1d1d1b;
      }

      .cls-1, .cls-2 {
        fill-rule: evenodd;
      }

      .cls-2, .cls-3 {
        fill: #121212;
      }
    </style>
  </defs>
  <path class="cls-2" d="M21.96,26.08c.14-1.61-1.65-5.73-2.44-7.24-.51-.96-3.29-5.56-3.84-5.89.43,0,2.46,1.68,2.9,2.05.96.83,1.75,1.62,2.58,2.54,1.39,1.54,2.87,3.97,3.58,5.98.14.38-.01.29.28.4-.03-6.13-.93-11.03-4.66-14.57-1.55-1.47-3.81-2.73-6.04-3.52-1.19-.42-2.42-.85-3.6-1.18l-2.8-.84c-.73-.23-.96-.31-1.66-.55-.36-.12-.66-.24-.96-.35C2.61,1.89,2.29,1.54.27.15c-.02-.01-.04-.03-.06-.04C.03,0,.33.14,0,0c.1.67.45,1.72.67,2.4.24.76.46,1.57.71,2.28,2.4,6.84,5.45,14.05,11.99,18.02,1.39.85,2.46,1.38,4,2.01.94.39,3.68,1.31,4.59,1.38"/>
  <path class="cls-1" d="M22.86,39.26l-.65,3.62c-.22,1.26-.42,2.53-.37,3.87.13,3.5,3.34,3.7,5,2.8,4.16-2.27,1.14-13.53,1.27-14.01-.09.34-.06.22-.11.66-.15,1.21-.58.7-1.29.93-.95.31-1.23,2.38-2.6,3.34-1.3.91-1.02-.82-1.25-1.21"/>
  <path class="cls-2" d="M22.86,39.26c.23.39-.05,2.12,1.25,1.21,1.38-.97,1.66-3.03,2.6-3.34.71-.23,1.24.28,1.38-.93.09-.77,0-.51-.15-1.29-1.11-5.38-4.01-11.19-7-15.74-.29-.45-.43-.78-.76-.95.03.23,1.61,3.28,2.04,4.45.63,1.72,1.07,3.17,1.41,5.04.3,1.64.49,4.31.23,6.05-.13.89-.26,1.86-.45,2.74-.19.88-.42,1.9-.55,2.78"/>
  <path class="cls-2" d="M26.21,25.02c2.97-.07,4.76-.89,6.61-2.48.29-.25.33-.27.54-.54.16-.2.33-.38.53-.63.35-.45.64-.92.91-1.4.58-1.02.96-2.08,1.31-3.26-.69-.03-2.94.68-3.56.92-3.27,1.24-5.94,3.43-6.33,7.4"/>
  <path class="cls-3" d="M121,26.99c0,.89.19,1.57.56,2.04.37.48.9.71,1.59.71.35,0,.71-.12,1.06-.36v-4.95c-.47-.21-.89-.31-1.26-.31-.56,0-1.03.26-1.4.77-.37.52-.56,1.22-.56,2.1M128.61,15.81v17.06h-2.22l-.65-.85c-.48.34-1,.61-1.56.81-.56.2-1.12.3-1.7.3-1.8,0-3.26-.52-4.36-1.55-1.1-1.03-1.66-2.55-1.66-4.57s.56-3.6,1.68-4.68c1.12-1.07,2.63-1.61,4.53-1.61.55,0,1.06.08,1.55.24v-4.91l4.4-.27ZM108.12,29.02c0-.27.09-.5.28-.68.19-.18.42-.27.71-.27h1.35v1.11c-.53.43-1.05.65-1.55.65-.23,0-.41-.08-.57-.23-.15-.15-.23-.35-.23-.59ZM105.99,25.01c.45-.19.95-.36,1.51-.5.56-.14,1.03-.21,1.41-.21.42,0,.76.11,1.03.34.27.23.43.56.5,1.01h-1.4c-3.06,0-4.59,1.14-4.59,3.43,0,1.24.37,2.22,1.11,2.95.74.72,1.84,1.09,3.29,1.09.98,0,1.86-.49,2.63-1.47l1.26,1.21h2.13v-7.25c0-1.51-.42-2.71-1.26-3.58-.84-.87-2.04-1.3-3.6-1.3-.9,0-1.82.11-2.75.33-.93.22-1.74.48-2.42.79l1.16,3.17ZM98.82,32.87l4.62-11.72h-4.37l-2.25,6.62-2.34-7.06-4.06,1.16,4.25,10.99h4.16ZM85.99,25.98c.5-.39,1.1-.7,1.79-.94.69-.24,1.33-.36,1.91-.36l-.89-3.53c-.61,0-1.28.15-2.01.43-.73.29-1.37.63-1.93,1.01l-1.06-1.43h-2.2v11.7h4.4v-6.89ZM79.17,32.87v-11.72h-4.4v11.72h4.4ZM76.95,19.55c.66,0,1.23-.23,1.7-.7.48-.47.71-1.02.71-1.67s-.24-1.23-.71-1.7c-.48-.48-1.04-.71-1.7-.71s-1.2.24-1.67.71c-.47.48-.7,1.04-.7,1.7s.23,1.2.7,1.67c.47.47,1.02.7,1.67.7ZM68.2,20.76c1.42,0,2.48.41,3.19,1.24.71.83,1.06,1.93,1.06,3.3v7.56h-4.4v-7.15c0-.93-.42-1.4-1.26-1.4-.26,0-.62.07-1.09.21-.47.14-.89.29-1.28.47v7.88h-4.4v-16.79l4.4-.27v5.97c1.35-.68,2.61-1.01,3.77-1.01ZM48.22,31.75c.6.47,1.41.81,2.43,1.04,1.02.23,1.88.34,2.57.34,1.61,0,2.83-.34,3.65-1.03.82-.68,1.23-1.65,1.23-2.89,0-.97-.38-1.75-1.15-2.36-.77-.6-1.75-1.12-2.96-1.53-.37-.13-.67-.26-.89-.39-.23-.13-.34-.24-.34-.34,0-.16.11-.29.34-.39.23-.1.52-.14.87-.14.42,0,.88.06,1.39.19.51.13,1,.3,1.49.51l1.23-2.78c-.6-.47-1.31-.79-2.14-.98-.83-.19-1.59-.28-2.28-.28-1.63,0-2.9.35-3.82,1.04-.92.69-1.38,1.65-1.38,2.88,0,.97.39,1.75,1.17,2.34.78.6,1.78,1.11,3.01,1.55.34.11.62.24.83.37.22.14.33.25.33.35,0,.16-.1.29-.29.39s-.43.15-.72.15c-.42,0-.96-.08-1.63-.24s-1.24-.35-1.7-.58l-1.23,2.78ZM39.83,29.02c0-.27.09-.5.28-.68.19-.18.42-.27.71-.27h1.35v1.11c-.53.43-1.05.65-1.55.65-.23,0-.41-.08-.57-.23-.15-.15-.23-.35-.23-.59ZM37.71,25.01c.45-.19.95-.36,1.51-.5.56-.14,1.03-.21,1.41-.21.42,0,.76.11,1.03.34.27.23.43.56.5,1.01h-1.4c-3.06,0-4.59,1.14-4.59,3.43,0,1.24.37,2.22,1.11,2.95.74.72,1.84,1.09,3.29,1.09.98,0,1.86-.49,2.63-1.47l1.26,1.21h2.13v-7.25c0-1.51-.42-2.71-1.26-3.58-.84-.87-2.04-1.3-3.6-1.3-.9,0-1.82.11-2.75.33-.93.22-1.74.48-2.42.79l1.16,3.17Z"/>
  <path class="cls-3" d="M123.04,48.09h.96v-3.37c0-1.43.79-2.15,2.07-2.12,1.05,0,1.63.62,1.63,1.87v3.61h.96v-3.61c0-2.02-.78-2.82-2.59-2.82-.86,0-1.57.32-2.07.86v-.76h-.96v6.34ZM115.06,42.6c1.28,0,2.28,1.05,2.28,2.33s-.99,2.36-2.28,2.36-2.28-1.11-2.28-2.36.99-2.33,2.28-2.33ZM115.06,48.24c1.8,0,3.28-1.54,3.28-3.31s-1.48-3.28-3.28-3.28-3.28,1.48-3.28,3.28,1.48,3.31,3.28,3.31ZM106.06,48.09h1.01v-6.34h-1.01v6.34ZM106.55,40.47c.36,0,.68-.3.68-.69,0-.35-.32-.66-.68-.66-.39,0-.69.32-.69.66,0,.39.3.69.69.69ZM101.52,42.63v-.88h-1.43v-2.49h-.96v2.49h-.95v.88h.95v5.46h.96v-5.46h1.43ZM90.17,47.29c-1.28,0-2.25-1.11-2.25-2.36s.96-2.33,2.25-2.33,2.36,1.05,2.36,2.33-1.11,2.36-2.36,2.36ZM90.2,48.24c.96,0,1.81-.46,2.39-1.17v1.04h.96v-6.37h-.96v1.04c-.58-.69-1.43-1.14-2.39-1.14-1.8,0-3.28,1.48-3.28,3.28s1.48,3.31,3.28,3.31ZM78.91,47.29c-1.28,0-2.25-1.11-2.25-2.36s.96-2.33,2.25-2.33,2.36,1.05,2.36,2.33-1.11,2.36-2.36,2.36ZM81.33,48.09h.96v-10.28h-.96v4.98c-.58-.69-1.43-1.14-2.39-1.14-1.8,0-3.28,1.48-3.28,3.28s1.48,3.31,3.28,3.31c.96,0,1.81-.46,2.39-1.17v1.01ZM65.4,48.09h.96v-3.37c0-1.43.79-2.15,2.07-2.12,1.05,0,1.63.62,1.63,1.87v3.61h.96v-3.61c0-2.02-.78-2.82-2.59-2.82-.86,0-1.57.32-2.07.86v-.76h-.96v6.34ZM60.2,41.75h-.96v3.37c0,1.4-.79,2.12-2.07,2.12-1.05,0-1.63-.62-1.63-1.87v-3.61h-.96v3.61c0,2.02.78,2.82,2.59,2.82.86,0,1.57-.32,2.07-.86v.76h.96v-6.34ZM46.73,42.6c1.28,0,2.28,1.05,2.28,2.33s-.99,2.36-2.28,2.36-2.28-1.11-2.28-2.36.99-2.33,2.28-2.33ZM46.73,48.24c1.8,0,3.28-1.54,3.28-3.31s-1.48-3.28-3.28-3.28-3.28,1.48-3.28,3.28,1.48,3.31,3.28,3.31ZM37.01,48.09v-5.46h-.85v-.88h.85v-.86c0-1.56.04-3.4,2.32-3.08v.89c-1.48-.19-1.35,1.25-1.35,2.19v.86h1.28v.88h-1.28v5.46h-.96Z"/>
</svg>