<?xml version="1.0" encoding="UTF-8"?>
<svg id="Layer_1" data-name="Layer 1" xmlns="http://www.w3.org/2000/svg" viewBox="0 0 113.86 50">
  <defs>
    <style>
      .cls-1 {
        fill: #121212;
      }
    </style>
  </defs>
  <path class="cls-1" d="M0,11.58h35.85c2.28-3.55,5.27-6.37,8.98-8.46,3.71-2.08,7.74-3.13,12.09-3.13s8.38,1.05,12.11,3.14c3.73,2.09,6.71,4.91,8.96,8.45h35.87l-3.55,3.55h-30.36c.62,1.35,1.1,2.75,1.42,4.22h24.83l-3.55,3.55h-20.73c.06.92.09,1.61.09,2.08s-.03,1.17-.09,2.09h16.56l-3.55,3.55h-13.56c-.32,1.48-.79,2.88-1.42,4.2h10.74l-3.6,3.55h-9.1c-2.25,3.54-5.24,6.37-8.96,8.47-3.73,2.1-7.76,3.16-12.11,3.16s-8.38-1.05-12.09-3.14c-3.71-2.1-6.71-4.93-8.98-8.48h-9.08l-3.53-3.55h10.72c-.62-1.32-1.09-2.72-1.4-4.2h-13.55l-3.6-3.55h16.56c-.06-.92-.09-1.61-.09-2.09s.03-1.17.09-2.08H11.28l-3.6-3.55h24.87c.32-1.47.79-2.87,1.4-4.22H3.55l-3.55-3.55ZM37.21,16.67c-1.13,2.65-1.7,5.42-1.7,8.32s.57,5.68,1.7,8.32c1.13,2.65,2.65,4.93,4.57,6.85,1.92,1.92,4.19,3.45,6.83,4.58,2.64,1.14,5.41,1.7,8.31,1.7s5.67-.57,8.32-1.7c2.65-1.14,4.93-2.66,6.84-4.58,1.92-1.92,3.44-4.21,4.58-6.85,1.14-2.65,1.71-5.42,1.71-8.32s-.57-5.67-1.71-8.32c-1.14-2.65-2.67-4.93-4.58-6.84-1.92-1.91-4.2-3.44-6.84-4.57-2.65-1.14-5.42-1.7-8.32-1.7s-5.67.57-8.31,1.7c-2.64,1.14-4.92,2.66-6.83,4.57-1.92,1.92-3.44,4.2-4.57,6.84ZM39.84,30.63h2.22l-.06-8.41,2.69,8.41h2.47s2.64-8.37,2.64-8.37v8.37h2.37v-11.28h-3.33s-2.86,8.99-2.86,8.99l-2.92-8.98h-3.2s0,11.27,0,11.27ZM54.7,30.63h2.35v-11.28h-2.35v11.28ZM59.61,30.63h2.26v-8.12l4.5,8.12h2.73v-11.28h-2.22v8.17l-4.5-8.17h-2.77v11.28ZM71.7,30.63h2.31v-11.28h-2.31v11.28Z"/>
</svg>