<?xml version="1.0" encoding="UTF-8"?>
<svg id="Layer_1" data-name="Layer 1" xmlns="http://www.w3.org/2000/svg" viewBox="0 0 248.85 50">
  <defs>
    <style>
      .cls-1 {
        fill: #121212;
      }
    </style>
  </defs>
  <path class="cls-1" d="M25,0C11.19,0,0,11.19,0,25s11.19,25,25,25,25-11.19,25-25S38.81,0,25,0ZM25.56,37.66s-.05-.04-.07-.06c-2.64,7.17-15.67,6.99-16.87-1.09-.09-.63.65-1.03,1.11-.6,3.87,3.6,5.61-3.16,7.98-4.52.99-.57,2.1-.72,3.12-.67,1.26.06,2.38.55,3.24,1.31.37-1.02,1.06-1.94,2.06-2.6.85-.56,1.88-1,3.02-1.02,2.73-.04,7.69,4.87,9.17-.19.18-.61,1.02-.64,1.26-.06,3.11,7.59-8.11,14.43-14.02,9.5ZM19.12,26.57c0-.54.44-.98.98-.98s.98.44.98.98-.44.98-.98.98-.98-.44-.98-.98ZM23.32,25.51c0-.54.44-.98.98-.98s.98.44.98.98-.44.98-.98.98-.98-.44-.98-.98ZM40.72,23.5c-2.32,0-4.21-1.88-4.21-4.21,0-1.48.76-2.78,1.91-3.53-1.33-3.45-4.69-3.03-4.85-.27-.17,2.93,1.63,5.85,1.81,7.31.17,1.46-1.03,2.93-3.27,2.93s-4.9-4.13-9.81-3.87c-4.9.26-7.4,3.36-8.09,4.3-.69.95-2.95,2.55-4.73.52-2.41-2.75.6-19.53,14.7-20.99,12.41-1.29,15.38,7.36,15.92,9.45.2-.03.41-.05.62-.05,2.32,0,4.21,1.88,4.21,4.21s-1.88,4.21-4.21,4.21Z"/>
  <g>
    <g>
      <path class="cls-1" d="M83.28,16.21c.42.38.63.85.63,1.42,0,.18-.03.39-.09.61l-6.05,17.69c-.12.35-.34.62-.64.82-.31.2-.64.32-1.01.34-.37,0-.72-.1-1.04-.31-.33-.2-.58-.5-.77-.88l-4.36-9.85-4.39,9.85c-.18.39-.44.68-.77.88-.33.2-.68.31-1.04.31-.37-.02-.71-.13-1.01-.34-.31-.2-.52-.48-.64-.82l-6.05-17.69c-.06-.22-.09-.43-.09-.61,0-.57.21-1.04.63-1.42.42-.38.89-.56,1.4-.56.41,0,.78.11,1.11.32.33.21.55.5.68.87l4.57,13.79,3.99-9.52c.16-.37.4-.66.71-.87.31-.21.65-.31,1.04-.29.39-.02.73.08,1.03.29.3.21.53.5.69.87l3.78,9.42,4.54-13.69c.12-.37.35-.66.69-.87.34-.21.71-.32,1.12-.32.49,0,.95.19,1.37.56Z"/>
      <path class="cls-1" d="M100.73,20.98c.35.35.52.79.52,1.34v12.9c0,.53-.17.97-.52,1.33-.35.36-.79.53-1.32.53s-.97-.17-1.3-.52c-.34-.35-.52-.78-.54-1.31-.51.59-1.2,1.09-2.07,1.51-.87.42-1.79.63-2.75.63-1.41,0-2.69-.36-3.84-1.08-1.15-.72-2.05-1.72-2.72-3-.67-1.28-1-2.73-1-4.36s.33-3.09.98-4.38c.65-1.29,1.55-2.3,2.69-3.02,1.14-.72,2.39-1.08,3.76-1.08.98,0,1.9.18,2.76.53.86.36,1.59.81,2.18,1.36v-.03c0-.53.17-.97.52-1.33.35-.36.79-.53,1.32-.53s.97.17,1.32.52ZM96.46,32.59c.84-.97,1.26-2.18,1.26-3.64s-.42-2.68-1.26-3.66c-.84-.98-1.92-1.46-3.25-1.46s-2.38.49-3.22,1.46c-.84.98-1.26,2.2-1.26,3.66s.41,2.68,1.24,3.64c.83.97,1.91,1.45,3.24,1.45s2.41-.48,3.25-1.45Z"/>
      <path class="cls-1" d="M118.35,22.31c.8,1.23,1.2,2.93,1.2,5.11v7.81c0,.53-.17.97-.52,1.33-.35.36-.79.53-1.32.53s-.97-.18-1.32-.53c-.35-.36-.52-.8-.52-1.33v-7.81c0-1.12-.24-2-.71-2.64-.47-.64-1.28-.96-2.43-.96s-2.12.34-2.79,1.02c-.68.68-1.01,1.54-1.01,2.58v7.81c0,.53-.17.97-.52,1.33-.35.36-.79.53-1.32.53s-.97-.18-1.32-.53c-.35-.36-.52-.8-.52-1.33v-12.6c0-.53.17-.97.52-1.33.35-.36.79-.53,1.32-.53s.97.18,1.32.53c.35.36.52.8.52,1.33v.52c.55-.73,1.27-1.36,2.16-1.89.89-.53,1.87-.79,2.93-.79,2.09,0,3.53.62,4.33,1.85Z"/>
      <path class="cls-1" d="M132.24,34.05c.23.27.35.64.35,1.08,0,.55-.3,1.01-.91,1.39-.6.38-1.28.56-2.04.56-1.27,0-2.34-.27-3.21-.81-.87-.54-1.3-1.68-1.3-3.43v-8.42h-1.41c-.49,0-.9-.16-1.23-.49-.33-.32-.49-.73-.49-1.22s.16-.86.49-1.17c.33-.31.74-.47,1.23-.47h1.41v-1.95c0-.53.18-.97.54-1.33.36-.36.8-.53,1.34-.53s.94.18,1.29.53c.35.36.52.8.52,1.33v1.95h2.18c.49,0,.9.16,1.23.49.33.33.49.73.49,1.22s-.16.86-.49,1.17c-.33.32-.74.47-1.23.47h-2.18v8.27c0,.43.11.74.34.93.23.19.53.29.92.29.16,0,.39-.04.68-.12.25-.1.48-.15.71-.15.29,0,.55.14.78.41Z"/>
      <path class="cls-1" d="M153.41,35.44c0,.53-.17.96-.52,1.3-.35.34-.75.5-1.2.5-.37,0-.7-.11-1-.34-.3-.22-.53-.53-.69-.91l-1.6-3.69h-9.15l-1.6,3.72c-.14.39-.36.69-.66.9-.3.21-.62.32-.97.32-.53,0-.94-.14-1.21-.43-.28-.28-.41-.67-.41-1.16,0-.18.03-.38.09-.58l7.64-18.24c.16-.41.41-.72.74-.95.33-.22.7-.31,1.11-.27.37,0,.71.11,1.03.32s.55.51.69.9l7.55,17.87c.1.26.15.51.15.73ZM140.76,28.79h6.14l-3.1-7.14-3.04,7.14Z"/>
      <path class="cls-1" d="M158.99,36.84c-1.15-.37-2.22-.99-3.22-1.86-.55-.49-.83-1.03-.83-1.62,0-.47.17-.88.52-1.24.35-.36.77-.53,1.26-.53.39,0,.74.12,1.04.37.82.67,1.62,1.16,2.39,1.46.78.31,1.7.46,2.76.46,1.15,0,2.13-.25,2.96-.76.83-.51,1.24-1.14,1.24-1.89,0-.91-.41-1.63-1.23-2.15-.82-.52-2.12-.91-3.9-1.17-4.48-.65-6.72-2.72-6.72-6.22,0-1.28.34-2.39,1.01-3.34.68-.95,1.6-1.67,2.76-2.17,1.17-.5,2.47-.75,3.9-.75,1.29,0,2.5.19,3.64.58,1.14.39,2.08.9,2.84,1.52.59.47.89,1.01.89,1.62,0,.47-.17.88-.52,1.24-.35.36-.76.53-1.23.53-.31,0-.58-.09-.83-.27-.53-.43-1.27-.82-2.23-1.17-.95-.36-1.81-.53-2.56-.53-1.29,0-2.29.24-2.99.72-.71.48-1.06,1.1-1.06,1.88,0,.87.36,1.54,1.09,1.98.73.45,1.87.81,3.42,1.1,1.76.3,3.17.7,4.22,1.17,1.05.48,1.85,1.13,2.38,1.95.53.82.8,1.92.8,3.28,0,1.28-.36,2.4-1.09,3.37-.73.97-1.69,1.71-2.9,2.23-1.21.52-2.51.78-3.9.78-1.47,0-2.78-.18-3.93-.55Z"/>
      <path class="cls-1" d="M188.65,20.98c.35.35.52.79.52,1.34v12.9c0,.53-.17.97-.52,1.33-.35.36-.79.53-1.32.53s-.97-.17-1.3-.52c-.34-.35-.52-.78-.54-1.31-.51.59-1.2,1.09-2.07,1.51-.87.42-1.79.63-2.75.63-1.41,0-2.69-.36-3.84-1.08-1.15-.72-2.05-1.72-2.72-3-.67-1.28-1-2.73-1-4.36s.33-3.09.98-4.38c.65-1.29,1.55-2.3,2.69-3.02,1.14-.72,2.39-1.08,3.76-1.08.98,0,1.9.18,2.76.53.86.36,1.59.81,2.18,1.36v-.03c0-.53.17-.97.52-1.33.35-.36.79-.53,1.32-.53s.97.17,1.32.52ZM184.38,32.59c.84-.97,1.26-2.18,1.26-3.64s-.42-2.68-1.26-3.66c-.84-.98-1.92-1.46-3.25-1.46s-2.38.49-3.22,1.46c-.84.98-1.26,2.2-1.26,3.66s.41,2.68,1.24,3.64c.83.97,1.91,1.45,3.24,1.45s2.41-.48,3.25-1.45Z"/>
      <path class="cls-1" d="M206.27,22.31c.8,1.23,1.2,2.93,1.2,5.11v7.81c0,.53-.17.97-.52,1.33-.35.36-.79.53-1.32.53s-.97-.18-1.32-.53c-.35-.36-.52-.8-.52-1.33v-7.81c0-1.12-.24-2-.71-2.64-.47-.64-1.28-.96-2.43-.96s-2.12.34-2.79,1.02c-.68.68-1.01,1.54-1.01,2.58v7.81c0,.53-.17.97-.52,1.33-.35.36-.79.53-1.32.53s-.97-.18-1.32-.53c-.35-.36-.52-.8-.52-1.33v-12.6c0-.53.17-.97.52-1.33.35-.36.79-.53,1.32-.53s.97.18,1.32.53c.35.36.52.8.52,1.33v.52c.55-.73,1.27-1.36,2.16-1.89.89-.53,1.87-.79,2.93-.79,2.09,0,3.53.62,4.33,1.85Z"/>
      <path class="cls-1" d="M220.16,34.05c.24.27.35.64.35,1.08,0,.55-.3,1.01-.91,1.39-.6.38-1.28.56-2.04.56-1.27,0-2.34-.27-3.21-.81-.87-.54-1.3-1.68-1.3-3.43v-8.42h-1.41c-.49,0-.9-.16-1.23-.49-.33-.32-.49-.73-.49-1.22s.16-.86.49-1.17c.33-.31.74-.47,1.23-.47h1.41v-1.95c0-.53.18-.97.54-1.33.36-.36.8-.53,1.34-.53s.94.18,1.29.53c.35.36.52.8.52,1.33v1.95h2.18c.49,0,.9.16,1.23.49.33.33.49.73.49,1.22s-.16.86-.49,1.17c-.33.32-.74.47-1.23.47h-2.18v8.27c0,.43.11.74.34.93.23.19.53.29.92.29.16,0,.39-.04.68-.12.25-.1.48-.15.71-.15.29,0,.55.14.78.41Z"/>
      <path class="cls-1" d="M238.62,20.98c.35.35.52.79.52,1.34v12.9c0,.53-.17.97-.52,1.33-.35.36-.79.53-1.32.53s-.97-.17-1.3-.52c-.34-.35-.52-.78-.54-1.31-.51.59-1.2,1.09-2.07,1.51-.87.42-1.79.63-2.75.63-1.41,0-2.69-.36-3.84-1.08-1.15-.72-2.05-1.72-2.72-3-.67-1.28-1-2.73-1-4.36s.33-3.09.98-4.38c.65-1.29,1.55-2.3,2.69-3.02,1.14-.72,2.39-1.08,3.76-1.08.98,0,1.9.18,2.76.53.86.36,1.59.81,2.18,1.36v-.03c0-.53.17-.97.52-1.33.35-.36.79-.53,1.32-.53s.97.17,1.32.52ZM234.35,32.59c.84-.97,1.26-2.18,1.26-3.64s-.42-2.68-1.26-3.66c-.84-.98-1.92-1.46-3.25-1.46s-2.38.49-3.22,1.46c-.84.98-1.26,2.2-1.26,3.66s.41,2.68,1.24,3.64c.83.97,1.91,1.45,3.24,1.45s2.41-.48,3.25-1.45Z"/>
    </g>
    <path class="cls-1" d="M244.17,12.61c2.63,0,4.68,2.05,4.68,4.6s-2.05,4.62-4.71,4.62-4.74-2.02-4.74-4.62,2.1-4.6,4.74-4.6h.03ZM244.11,13.53c-2.02,0-3.53,1.65-3.53,3.67s1.51,3.67,3.59,3.67c2.02.03,3.5-1.63,3.5-3.67s-1.49-3.67-3.53-3.67h-.03ZM243.41,19.59h-1.06v-4.57c.42-.08,1.01-.17,1.77-.17.87,0,1.26.14,1.6.36.25.2.45.56.45.98,0,.53-.39.93-.95,1.09v.06c.45.14.7.5.84,1.12.14.7.22.98.34,1.12h-1.15c-.14-.17-.22-.56-.36-1.09-.08-.5-.36-.73-.95-.73h-.5v1.82ZM243.44,17.01h.5c.59,0,1.06-.2,1.06-.67,0-.42-.31-.7-.98-.7-.28,0-.48.03-.59.06v1.32Z"/>
    <g>
      <path class="cls-1" d="M83.28,16.21c.42.38.63.85.63,1.42,0,.18-.03.39-.09.61l-6.05,17.69c-.12.35-.34.62-.64.82-.31.2-.64.32-1.01.34-.37,0-.72-.1-1.04-.31-.33-.2-.58-.5-.77-.88l-4.36-9.85-4.39,9.85c-.18.39-.44.68-.77.88-.33.2-.68.31-1.04.31-.37-.02-.71-.13-1.01-.34-.31-.2-.52-.48-.64-.82l-6.05-17.69c-.06-.22-.09-.43-.09-.61,0-.57.21-1.04.63-1.42.42-.38.89-.56,1.4-.56.41,0,.78.11,1.11.32.33.21.55.5.68.87l4.57,13.79,3.99-9.52c.16-.37.4-.66.71-.87.31-.21.65-.31,1.04-.29.39-.02.73.08,1.03.29.3.21.53.5.69.87l3.78,9.42,4.54-13.69c.12-.37.35-.66.69-.87.34-.21.71-.32,1.12-.32.49,0,.95.19,1.37.56Z"/>
      <path class="cls-1" d="M100.73,20.98c.35.35.52.79.52,1.34v12.9c0,.53-.17.97-.52,1.33-.35.36-.79.53-1.32.53s-.97-.17-1.3-.52c-.34-.35-.52-.78-.54-1.31-.51.59-1.2,1.09-2.07,1.51-.87.42-1.79.63-2.75.63-1.41,0-2.69-.36-3.84-1.08-1.15-.72-2.05-1.72-2.72-3-.67-1.28-1-2.73-1-4.36s.33-3.09.98-4.38c.65-1.29,1.55-2.3,2.69-3.02,1.14-.72,2.39-1.08,3.76-1.08.98,0,1.9.18,2.76.53.86.36,1.59.81,2.18,1.36v-.03c0-.53.17-.97.52-1.33.35-.36.79-.53,1.32-.53s.97.17,1.32.52ZM96.46,32.59c.84-.97,1.26-2.18,1.26-3.64s-.42-2.68-1.26-3.66c-.84-.98-1.92-1.46-3.25-1.46s-2.38.49-3.22,1.46c-.84.98-1.26,2.2-1.26,3.66s.41,2.68,1.24,3.64c.83.97,1.91,1.45,3.24,1.45s2.41-.48,3.25-1.45Z"/>
      <path class="cls-1" d="M118.35,22.31c.8,1.23,1.2,2.93,1.2,5.11v7.81c0,.53-.17.97-.52,1.33-.35.36-.79.53-1.32.53s-.97-.18-1.32-.53c-.35-.36-.52-.8-.52-1.33v-7.81c0-1.12-.24-2-.71-2.64-.47-.64-1.28-.96-2.43-.96s-2.12.34-2.79,1.02c-.68.68-1.01,1.54-1.01,2.58v7.81c0,.53-.17.97-.52,1.33-.35.36-.79.53-1.32.53s-.97-.18-1.32-.53c-.35-.36-.52-.8-.52-1.33v-12.6c0-.53.17-.97.52-1.33.35-.36.79-.53,1.32-.53s.97.18,1.32.53c.35.36.52.8.52,1.33v.52c.55-.73,1.27-1.36,2.16-1.89.89-.53,1.87-.79,2.93-.79,2.09,0,3.53.62,4.33,1.85Z"/>
      <path class="cls-1" d="M132.24,34.05c.23.27.35.64.35,1.08,0,.55-.3,1.01-.91,1.39-.6.38-1.28.56-2.04.56-1.27,0-2.34-.27-3.21-.81-.87-.54-1.3-1.68-1.3-3.43v-8.42h-1.41c-.49,0-.9-.16-1.23-.49-.33-.32-.49-.73-.49-1.22s.16-.86.49-1.17c.33-.31.74-.47,1.23-.47h1.41v-1.95c0-.53.18-.97.54-1.33.36-.36.8-.53,1.34-.53s.94.18,1.29.53c.35.36.52.8.52,1.33v1.95h2.18c.49,0,.9.16,1.23.49.33.33.49.73.49,1.22s-.16.86-.49,1.17c-.33.32-.74.47-1.23.47h-2.18v8.27c0,.43.11.74.34.93.23.19.53.29.92.29.16,0,.39-.04.68-.12.25-.1.48-.15.71-.15.29,0,.55.14.78.41Z"/>
      <path class="cls-1" d="M153.41,35.44c0,.53-.17.96-.52,1.3-.35.34-.75.5-1.2.5-.37,0-.7-.11-1-.34-.3-.22-.53-.53-.69-.91l-1.6-3.69h-9.15l-1.6,3.72c-.14.39-.36.69-.66.9-.3.21-.62.32-.97.32-.53,0-.94-.14-1.21-.43-.28-.28-.41-.67-.41-1.16,0-.18.03-.38.09-.58l7.64-18.24c.16-.41.41-.72.74-.95.33-.22.7-.31,1.11-.27.37,0,.71.11,1.03.32s.55.51.69.9l7.55,17.87c.1.26.15.51.15.73ZM140.76,28.79h6.14l-3.1-7.14-3.04,7.14Z"/>
      <path class="cls-1" d="M158.99,36.84c-1.15-.37-2.22-.99-3.22-1.86-.55-.49-.83-1.03-.83-1.62,0-.47.17-.88.52-1.24.35-.36.77-.53,1.26-.53.39,0,.74.12,1.04.37.82.67,1.62,1.16,2.39,1.46.78.31,1.7.46,2.76.46,1.15,0,2.13-.25,2.96-.76.83-.51,1.24-1.14,1.24-1.89,0-.91-.41-1.63-1.23-2.15-.82-.52-2.12-.91-3.9-1.17-4.48-.65-6.72-2.72-6.72-6.22,0-1.28.34-2.39,1.01-3.34.68-.95,1.6-1.67,2.76-2.17,1.17-.5,2.47-.75,3.9-.75,1.29,0,2.5.19,3.64.58,1.14.39,2.08.9,2.84,1.52.59.47.89,1.01.89,1.62,0,.47-.17.88-.52,1.24-.35.36-.76.53-1.23.53-.31,0-.58-.09-.83-.27-.53-.43-1.27-.82-2.23-1.17-.95-.36-1.81-.53-2.56-.53-1.29,0-2.29.24-2.99.72-.71.48-1.06,1.1-1.06,1.88,0,.87.36,1.54,1.09,1.98.73.45,1.87.81,3.42,1.1,1.76.3,3.17.7,4.22,1.17,1.05.48,1.85,1.13,2.38,1.95.53.82.8,1.92.8,3.28,0,1.28-.36,2.4-1.09,3.37-.73.97-1.69,1.71-2.9,2.23-1.21.52-2.51.78-3.9.78-1.47,0-2.78-.18-3.93-.55Z"/>
      <path class="cls-1" d="M188.65,20.98c.35.35.52.79.52,1.34v12.9c0,.53-.17.97-.52,1.33-.35.36-.79.53-1.32.53s-.97-.17-1.3-.52c-.34-.35-.52-.78-.54-1.31-.51.59-1.2,1.09-2.07,1.51-.87.42-1.79.63-2.75.63-1.41,0-2.69-.36-3.84-1.08-1.15-.72-2.05-1.72-2.72-3-.67-1.28-1-2.73-1-4.36s.33-3.09.98-4.38c.65-1.29,1.55-2.3,2.69-3.02,1.14-.72,2.39-1.08,3.76-1.08.98,0,1.9.18,2.76.53.86.36,1.59.81,2.18,1.36v-.03c0-.53.17-.97.52-1.33.35-.36.79-.53,1.32-.53s.97.17,1.32.52ZM184.38,32.59c.84-.97,1.26-2.18,1.26-3.64s-.42-2.68-1.26-3.66c-.84-.98-1.92-1.46-3.25-1.46s-2.38.49-3.22,1.46c-.84.98-1.26,2.2-1.26,3.66s.41,2.68,1.24,3.64c.83.97,1.91,1.45,3.24,1.45s2.41-.48,3.25-1.45Z"/>
      <path class="cls-1" d="M206.27,22.31c.8,1.23,1.2,2.93,1.2,5.11v7.81c0,.53-.17.97-.52,1.33-.35.36-.79.53-1.32.53s-.97-.18-1.32-.53c-.35-.36-.52-.8-.52-1.33v-7.81c0-1.12-.24-2-.71-2.64-.47-.64-1.28-.96-2.43-.96s-2.12.34-2.79,1.02c-.68.68-1.01,1.54-1.01,2.58v7.81c0,.53-.17.97-.52,1.33-.35.36-.79.53-1.32.53s-.97-.18-1.32-.53c-.35-.36-.52-.8-.52-1.33v-12.6c0-.53.17-.97.52-1.33.35-.36.79-.53,1.32-.53s.97.18,1.32.53c.35.36.52.8.52,1.33v.52c.55-.73,1.27-1.36,2.16-1.89.89-.53,1.87-.79,2.93-.79,2.09,0,3.53.62,4.33,1.85Z"/>
      <path class="cls-1" d="M220.16,34.05c.24.27.35.64.35,1.08,0,.55-.3,1.01-.91,1.39-.6.38-1.28.56-2.04.56-1.27,0-2.34-.27-3.21-.81-.87-.54-1.3-1.68-1.3-3.43v-8.42h-1.41c-.49,0-.9-.16-1.23-.49-.33-.32-.49-.73-.49-1.22s.16-.86.49-1.17c.33-.31.74-.47,1.23-.47h1.41v-1.95c0-.53.18-.97.54-1.33.36-.36.8-.53,1.34-.53s.94.18,1.29.53c.35.36.52.8.52,1.33v1.95h2.18c.49,0,.9.16,1.23.49.33.33.49.73.49,1.22s-.16.86-.49,1.17c-.33.32-.74.47-1.23.47h-2.18v8.27c0,.43.11.74.34.93.23.19.53.29.92.29.16,0,.39-.04.68-.12.25-.1.48-.15.71-.15.29,0,.55.14.78.41Z"/>
      <path class="cls-1" d="M238.62,20.98c.35.35.52.79.52,1.34v12.9c0,.53-.17.97-.52,1.33-.35.36-.79.53-1.32.53s-.97-.17-1.3-.52c-.34-.35-.52-.78-.54-1.31-.51.59-1.2,1.09-2.07,1.51-.87.42-1.79.63-2.75.63-1.41,0-2.69-.36-3.84-1.08-1.15-.72-2.05-1.72-2.72-3-.67-1.28-1-2.73-1-4.36s.33-3.09.98-4.38c.65-1.29,1.55-2.3,2.69-3.02,1.14-.72,2.39-1.08,3.76-1.08.98,0,1.9.18,2.76.53.86.36,1.59.81,2.18,1.36v-.03c0-.53.17-.97.52-1.33.35-.36.79-.53,1.32-.53s.97.17,1.32.52ZM234.35,32.59c.84-.97,1.26-2.18,1.26-3.64s-.42-2.68-1.26-3.66c-.84-.98-1.92-1.46-3.25-1.46s-2.38.49-3.22,1.46c-.84.98-1.26,2.2-1.26,3.66s.41,2.68,1.24,3.64c.83.97,1.91,1.45,3.24,1.45s2.41-.48,3.25-1.45Z"/>
    </g>
    <path class="cls-1" d="M244.17,12.61c2.63,0,4.68,2.05,4.68,4.6s-2.05,4.62-4.71,4.62-4.74-2.02-4.74-4.62,2.1-4.6,4.74-4.6h.03ZM244.11,13.53c-2.02,0-3.53,1.65-3.53,3.67s1.51,3.67,3.59,3.67c2.02.03,3.5-1.63,3.5-3.67s-1.49-3.67-3.53-3.67h-.03ZM243.41,19.59h-1.06v-4.57c.42-.08,1.01-.17,1.77-.17.87,0,1.26.14,1.6.36.25.2.45.56.45.98,0,.53-.39.93-.95,1.09v.06c.45.14.7.5.84,1.12.14.7.22.98.34,1.12h-1.15c-.14-.17-.22-.56-.36-1.09-.08-.5-.36-.73-.95-.73h-.5v1.82ZM243.44,17.01h.5c.59,0,1.06-.2,1.06-.67,0-.42-.31-.7-.98-.7-.28,0-.48.03-.59.06v1.32Z"/>
  </g>
</svg>