<?xml version="1.0" encoding="UTF-8"?>
<svg id="Layer_1" data-name="Layer 1" xmlns="http://www.w3.org/2000/svg" viewBox="0 0 211.45 50">
  <defs>
    <style>
      .cls-1 {
        fill: #f5f5f5;
        fill-rule: evenodd;
      }
    </style>
  </defs>
  <path class="cls-1" d="M7.3,49.36c.55,0,.99-.27,1.17-.83l3.63-11.18h19.17l3.63,11.18c.17.53.62.83,1.17.83h6.39c.69,0,1.09-.43.83-1.17L26.74.83c-.21-.55-.55-.83-1.1-.83h-7.87c-.55,0-.9.28-1.1.83L.09,48.19c-.26.74.07,1.17.83,1.17h6.39ZM21.56,7.86h.28l7.47,23.22h-15.22l7.47-23.22h0ZM52.34,49.36c.53,0,.79-.26.79-.79v-21.07c1.01-.42,2.75-.74,4.66-.74,1.43,0,2.96,0,4.29.21.53.11.85-.16.85-.64v-3.81c0-.42-.21-.74-.69-.79-2.01-.32-3.76-.42-5.4-.42-3.23,0-6.56.69-9.26,2.01-.42.16-.58.48-.58.9v24.35c0,.53.26.79.79.79h4.55ZM86.81,47.04c.42-.32.42-.64.16-1.06l-2.22-3.18c-.26-.48-.64-.48-1.11-.21-1.96,1.27-4.13,1.91-6.14,1.91-3.65,0-5.77-1.85-5.77-5.13v-7.41c0-3.28,2.06-5.13,5.82-5.13,1.96,0,3.92.58,5.56,1.54.48.26.85.16,1.11-.21l2.06-3.18c.26-.42.21-.85-.21-1.11-2.7-1.69-5.61-2.54-8.68-2.54-7.31,0-11.81,4.18-11.81,10.64v7.36c0,6.46,4.45,10.69,11.86,10.69,3.71,0,6.67-1.06,9.37-2.96h0ZM113.33,32.16c0-7.78-5.66-10.85-11.43-10.85s-11.65,3.07-11.65,10.85v7.52c0,7.04,5.61,10.32,11.59,10.32,4.5,0,7.94-1.43,10.75-3.65.42-.32.48-.74.16-1.11l-2.17-2.91c-.26-.37-.69-.42-1.06-.16-1.96,1.32-4.18,2.44-7.46,2.44s-5.61-1.64-5.61-4.87v-1.48h16.09c.53,0,.79-.26.79-.74v-5.35h0ZM107.35,32.11v1.38h-10.91v-1.38c0-3.92,2.33-5.4,5.45-5.4s5.45,1.53,5.45,5.4h0ZM135.14,22.47c-1.59-.69-3.6-1.16-5.72-1.16-6.67,0-11.54,4.34-11.54,11.22v5.82c0,8.05,5.13,11.65,12.12,11.65,3.44,0,7.52-.74,10.69-1.91.42-.16.58-.42.58-.9V6.28c0-.53-.27-.79-.79-.79h-4.55c-.53,0-.79.26-.79.79v16.19h0ZM124.07,38.41v-5.88c0-4.02,2.17-5.77,5.98-5.77,2.06,0,3.81.53,5.08,1.38v15.72c-1.27.48-3.18.74-4.98.74-3.81,0-6.09-1.64-6.09-6.19h0ZM154.46,8.74c0-2.01-1.43-3.44-3.44-3.44s-3.49,1.43-3.49,3.44,1.53,3.49,3.49,3.49,3.44-1.54,3.44-3.49h0ZM153.3,49.36c.48,0,.74-.26.74-.79v-25.89c0-.48-.26-.74-.74-.74h-4.61c-.48,0-.79.26-.79.74v25.89c0,.53.32.79.79.79h4.61ZM183.95,39.31v-7.09c0-6.67-4.76-10.91-12.07-10.91s-12.07,4.24-12.07,10.91v7.09c0,6.56,4.76,10.69,12.07,10.69s12.07-4.13,12.07-10.69h0ZM166,39.31v-7.09c0-3.49,2.06-5.4,5.88-5.4s5.88,1.91,5.88,5.4v7.09c0,3.39-2.12,5.19-5.88,5.19s-5.88-1.8-5.88-5.19h0ZM195.01,49.36c.53,0,.79-.26.79-.79v-21.07c1.01-.42,2.75-.74,4.66-.74,1.43,0,2.96,0,4.29.21.53.11.85-.16.85-.64v-3.81c0-.42-.21-.74-.69-.79-2.01-.32-3.76-.42-5.4-.42-3.23,0-6.56.69-9.26,2.01-.42.16-.58.48-.58.9v24.35c0,.53.26.79.79.79h4.55Z"/>
  <path class="cls-1" d="M211.45,24.84c0-1.37-1.08-2.46-2.48-2.46s-2.48,1.09-2.48,2.46,1.08,2.46,2.48,2.46,2.48-1.09,2.48-2.46h0ZM211.01,24.84c0,1.15-.89,2.06-2.05,2.06s-2.05-.91-2.05-2.06.89-2.07,2.05-2.07,2.05.91,2.05,2.07h0ZM210.13,26.18h-.47l-.46-.92c-.09-.18-.2-.25-.43-.25h-.27v1.17h-.43v-2.64c.22-.1.54-.16.82-.16.68,0,1.07.3,1.07.8,0,.39-.27.61-.62.7v.02c.11.06.2.15.27.28l.51,1h0ZM209.54,24.19c0,.35-.24.5-.7.5h-.34v-.91c.1-.03.25-.04.4-.04.43,0,.64.17.64.46Z"/>
</svg>