<?xml version="1.0" encoding="UTF-8"?>
<svg id="Layer_1" data-name="Layer 1" xmlns="http://www.w3.org/2000/svg" viewBox="0 0 189.45 50">
  <defs>
    <style>
      .cls-1 {
        fill: #121212;
      }
    </style>
  </defs>
  <g>
    <path class="cls-1" d="M60.09,16.01h-1.92l-10.11,17.51h5.78l5.29-9.17,5.29,9.17h5.78l-10.11-17.51Z"/>
    <path class="cls-1" d="M79.77,16.01v9.38c0,.87-.3,1.61-.91,2.21-.61.61-1.35.91-2.21.91s-1.61-.3-2.21-.91c-.61-.61-.91-1.35-.91-2.21v-9.38h-5v9.38c0,2.24.79,4.16,2.38,5.75,1.59,1.59,3.51,2.38,5.75,2.38s4.16-.79,5.75-2.38c1.59-1.59,2.38-3.5,2.38-5.75v-9.38h-5Z"/>
    <path class="cls-1" d="M99.72,18.57c-1.71-1.71-3.77-2.56-6.19-2.56h-7.5v17.51h7.5c2.42,0,4.48-.85,6.19-2.56,1.71-1.71,2.56-3.77,2.56-6.19s-.85-4.48-2.56-6.19ZM96.18,27.41c-.73.73-1.62,1.1-2.65,1.1h-2.5v-7.51h2.5c1.03,0,1.92.37,2.65,1.1.73.73,1.1,1.62,1.1,2.65s-.37,1.92-1.1,2.65Z"/>
    <path class="cls-1" d="M103.54,16.01v17.51h5v-17.51h-5Z"/>
    <path class="cls-1" d="M124.74,18.57c-1.71-1.71-3.77-2.56-6.19-2.56s-4.48.85-6.19,2.56c-1.71,1.71-2.56,3.77-2.56,6.19s.85,4.48,2.56,6.19c1.71,1.71,3.77,2.56,6.19,2.56s4.48-.85,6.19-2.56c1.71-1.71,2.56-3.77,2.56-6.19s-.85-4.48-2.56-6.19ZM121.2,27.41c-.73.73-1.62,1.1-2.65,1.1s-1.92-.37-2.65-1.1c-.73-.73-1.1-1.62-1.1-2.65s.37-1.92,1.1-2.65c.73-.73,1.62-1.1,2.65-1.1s1.92.37,2.65,1.1c.73.73,1.1,1.62,1.1,2.65s-.37,1.92-1.1,2.65Z"/>
    <path class="cls-1" d="M139.81,16.01v6.25h-6.25v-6.25h-5v17.51h5v-6.25h6.25v6.25h5v-17.51h-5Z"/>
    <path class="cls-1" d="M146.06,16.01v17.51h5v-17.51h-5Z"/>
    <path class="cls-1" d="M168.04,16.01l-5.29,9.17-5.29-9.17h-5.78l10.11,17.51h1.92l10.11-17.51h-5.78Z"/>
    <path class="cls-1" d="M189.45,21.01v-5h-15.01v17.51h15.01v-5h-10.01v-1.25h7.5v-5h-7.5v-1.25h10.01Z"/>
  </g>
  <g>
    <path class="cls-1" d="M21.65,50L0,37.5V12.5L21.65,0l21.65,12.5v25l-21.65,12.5ZM21.65,45.7l17.93-10.35V14.65L21.65,4.3,3.72,14.65v20.7l17.93,10.35Z"/>
    <polygon class="cls-1" points="22.61 42.88 22.58 6.88 28.68 10.4 27.26 27.16 34.03 25.94 32.32 12.5 37.73 15.61 37.72 34.17 31.52 37.74 34.1 28.94 27.03 31.43 28.53 39.49 22.61 42.88"/>
    <path class="cls-1" d="M20.71,43.12l-5.71-3.41,1.47-12.47-6.94-1.58,2.33,12.26-6.26-3.64V15.6l15.13-8.61v36.13ZM12.44,15.81l-1.32,7.81,3.63.6-1.05-8.79-1.25.38Z"/>
  </g>
</svg>