<?xml version="1.0" encoding="UTF-8"?>
<svg id="Layer_1" data-name="Layer 1" xmlns="http://www.w3.org/2000/svg" viewBox="0 0 212.63 50">
  <defs>
    <style>
      .cls-1 {
        fill: #f5f5f5;
      }
    </style>
  </defs>
  <path class="cls-1" d="M123.37,44.3c0,.39.12.62.35.62.17,0,.32-.07.52-.2L190.51,1.68c1.16-.76,2.23-1.16,3.82-1.16h14.56c2.24,0,3.74,1.49,3.74,3.74v27.81c0,3.36-.75,5.3-3.73,7.1l-17.67,10.62c-.23.15-.42.22-.59.22-.21,0-.41-.17-.41-.77V16.77c0-.35-.12-.62-.36-.62-.17,0-.32.07-.51.19l-48.45,31.47c-1.36.88-2.47,1.15-3.72,1.15h-32.12c-2.24,0-3.73-1.49-3.73-3.74V5.14c0-.29-.13-.56-.36-.56-.16,0-.32.07-.52.19l-31.95,19.19c-.32.19-.41.35-.41.5,0,.14.05.27.28.49l22.82,22.82c.3.31.51.54.51.77,0,.27-.33.39-.72.39h-20.65c-1.62,0-2.87-.25-3.74-1.12l-13.84-13.84c-.14-.14-.25-.22-.4-.22-.12,0-.28.06-.43.15l-23.15,13.91c-1.4.84-2.37,1.12-3.74,1.12H3.73c-2.24,0-3.73-1.49-3.73-3.74v-27.3c0-3.36.75-5.29,3.74-7.08L21.51.15c.18-.11.34-.15.48-.15.27,0,.42.28.42.9v36.5c0,.38.11.56.35.56.16,0,.33-.1.53-.22L83.35,1.64c1.43-.86,2.31-1.12,3.96-1.12h32.32c2.24,0,3.74,1.49,3.74,3.74v40.04Z"/>
</svg>