<?xml version="1.0" encoding="UTF-8"?>
<svg id="Layer_1" data-name="Layer 1" xmlns="http://www.w3.org/2000/svg" viewBox="0 0 216.3 50">
  <defs>
    <style>
      .cls-1, .cls-2 {
        fill: #fff;
      }

      .cls-2, .cls-3 {
        fill-rule: evenodd;
      }

      .cls-3 {
        fill: #706f6f;
      }
    </style>
  </defs>
  <g id="Horizontal_logo" data-name="Horizontal logo">
    <g>
      <g>
        <path class="cls-3" d="M0,24.91l1.11,1.24c.93,1.05,2.84,2.59,4.08,3.4.31.19.37.31.68.49,1.61.93,4.45,2.53,6.24,2.53s2.97-.06,4.57-1.48c.56-.49,1.92-2.22,1.92-3.15s-1.17-1.48-1.61-1.67c-1.73-.86-4.08-.25-5.56-.56-.43-.12-.8-.25-1.17-.31-.25-.06-.31-.12-.56-.19q-.19,0-.31-.12s-.12,0-.12-.06h-.12c1.61-.25.8-.93,5.31-.93,1.61,0,2.53-.12,3.46-1.05.12-.12.74-.74.74-.86,0-1.61-3.21-5.07-5.81-5.07s-1.48.31-1.98.49c-1.73.56-3.71,1.54-5.19,2.53-1.73.93-4.82,3.46-5.68,4.76"/>
        <path class="cls-3" d="M39.29,22.87c.62.31,3.95.99,4.88,1.17,1.3.19,4.63-.43,5.07.99-.43.12-.56.37-.93.62-1.05.56-8.59-.99-8.59,2.41s1.17,2.53,2.04,3.27c.74.62,2.53,1.61,3.77,1.61,1.98,0,6.73-2.59,8.59-4.14l1.42-1.17c.56-.43,2.35-2.1,2.47-2.66-.43-.62-1.79-2.04-2.41-2.53-1.73-1.42-3.89-3.09-5.99-3.95-2.04-.86-2.29-1.17-4.7-1.17s-4.39,2.35-5.31,4.51c-.19.37-.25.8-.37,1.11"/>
        <path class="cls-3" d="M36.7,32.94c0,3.71-.25,2.97,1.3,5.62.56.93.8,2.35,1.05,3.58-.43-.12-.62-.49-.93-.8-2.9-2.35-2.29-5.62-6.3-5.93-.25.37-.56.68-.8,1.05-2.22,3.15-1.61,6.67,1.61,8.77.37.25.74.43,1.11.68,2.04,1.24,4.14,2.04,6.24,3.09,1.48.74,2.97,1.54,3.83.49.43-.56.49-1.79.62-2.59l.56-4.32c.31-3.58.68-5.99-1.98-8.59-.31-.31-.62-.49-.93-.68-1.36-.8-2.66-.86-4.14-.68-.56.06-1.24-.19-1.24.37"/>
        <path class="cls-3" d="M13.1,9.77c0,1.98,0,4.14,1.48,5.62,1.85,1.85,3.65,2.1,6.12,1.85,1.05-.12.93.37.93-1.85s-.99-3.58-2.04-5.19c-.93-1.42-.8-1.42-.68-2.53.93.49.99-.25,2.04,1.48.43.8.8,1.48,1.36,2.22.56.8,2.97,3.34,3.52,3.71.19-.25.25-.31.43-.56,1.54-1.85,2.78-5.25,1.61-7.66-.37-.74-2.04-2.1-2.72-2.59-.31-.25-.43-.31-.74-.56-2.47-1.54-3.4-2.04-6.3-3.03-.37-.12-1.79-.56-2.1-.56-.68,0-1.73.68-1.92,1.24-.37,1.24-.99,7.1-.99,8.4"/>
        <path class="cls-3" d="M29.78,9.15c0,1.42.19,2.41.86,3.52.25.37.49.8.8,1.17.99,1.17.93,1.24,1.48.62.19-.25.25-.19.43-.37,1.11-.99,2.59-2.59,3.27-3.89.19-.37.43-.8.68-1.17.74-1.17.93-.99,2.1-1.61.19.25.25.31.43.68l-1.54,2.66c-.74,1.24-2.16,3.65-2.16,5.13s1.05,1.92,2.29,1.92c1.85,0,3.4-.93,4.45-1.73,1.98-1.54,2.16-3.52,1.85-5.87l-.37-8.22c-.43-2.97-2.16-1.92-3.58-1.24-2.72,1.24-6.73,2.9-9.08,4.76-.86.68-1.92,2.22-1.92,3.71"/>
        <path class="cls-3" d="M15.45,49.99c.49,0,.74-.19,1.05-.31l3.83-1.73c1.54-.68,5.07-2.41,6.3-3.58,3.52-3.27.8-8.28-.86-9.39-.62.43-3.09,2.97-3.58,3.65-1.11,1.48-1.42,3.65-3.52,3.83-.25-.86-.62-.06.43-1.92.86-1.48,2.9-4.63,2.9-6.3s-1.67-2.04-3.03-2.04-1.79.43-2.41.74c-1.17.62-2.59,1.98-3.03,3.34-.19.68-.25,2.22-.12,2.97l.49,9.02c.06.99.74,1.73,1.48,1.73"/>
      </g>
      <g>
        <path class="cls-2" d="M28.42,24.91l1.11,1.24c.93,1.05,2.84,2.59,4.08,3.4.31.19.37.31.68.49,1.61.93,4.45,2.53,6.24,2.53s2.97-.06,4.57-1.48c.56-.49,1.92-2.22,1.92-3.15s-1.17-1.48-1.61-1.67c-1.73-.86-4.08-.25-5.56-.56-.43-.12-.8-.25-1.17-.31-.25-.06-.31-.12-.56-.19q-.19,0-.31-.12s-.12,0-.12-.06h-.12c1.61-.25.8-.93,5.31-.93,1.61,0,2.53-.12,3.46-1.05.12-.12.74-.74.74-.86,0-1.61-3.21-5.07-5.81-5.07s-1.48.31-1.98.49c-1.73.56-3.71,1.54-5.19,2.53-1.54,1.05-4.63,3.58-5.5,4.88"/>
        <path class="cls-2" d="M67.71,22.87c.62.31,3.95.99,4.88,1.17,1.3.19,4.63-.43,5,.99-.43.12-.56.37-.93.62-1.05.56-8.59-.99-8.59,2.41s1.17,2.53,2.04,3.27c.74.62,2.53,1.61,3.77,1.61,1.98,0,6.73-2.59,8.59-4.14l1.42-1.17c.56-.43,2.35-2.1,2.47-2.66-.43-.62-1.79-2.04-2.41-2.53-1.73-1.42-3.89-3.09-5.99-3.95-2.04-.86-2.29-1.17-4.7-1.17s-4.39,2.35-5.31,4.51c-.19.37-.25.8-.37,1.11"/>
        <path class="cls-2" d="M65.12,32.94c0,3.71-.25,2.97,1.3,5.62.56.93.8,2.35,1.05,3.58-.43-.12-.62-.49-.93-.8-2.9-2.35-2.29-5.62-6.3-5.93-.25.37-.56.68-.8,1.05-2.22,3.15-1.61,6.67,1.61,8.77.37.25.74.43,1.11.68,2.04,1.24,4.14,2.04,6.24,3.09,1.48.74,2.97,1.54,3.83.49.43-.56.49-1.79.62-2.59l.56-4.32c.31-3.58.68-5.99-1.98-8.59-.31-.31-.62-.49-.93-.68-1.36-.8-2.66-.86-4.14-.68-.56.06-1.24-.19-1.24.37"/>
        <path class="cls-2" d="M41.46,9.77c0,1.98,0,4.14,1.48,5.62,1.79,1.85,3.65,2.1,6.12,1.85,1.05-.12.93.37.93-1.85s-.99-3.58-2.04-5.19c-.93-1.42-.8-1.42-.68-2.53.99.49.99-.25,2.04,1.48.43.8.8,1.48,1.36,2.22.56.8,2.97,3.34,3.52,3.71.19-.25.25-.31.43-.56,1.54-1.85,2.78-5.25,1.61-7.66-.37-.74-2.04-2.1-2.72-2.59-.31-.25-.43-.31-.74-.56-2.47-1.54-3.4-2.04-6.3-3.03-.37-.12-1.79-.56-2.1-.56-.68,0-1.73.68-1.92,1.24-.43,1.24-1.05,7.1-1.05,8.4"/>
        <path class="cls-2" d="M58.2,9.15c0,1.42.19,2.41.86,3.52.25.37.49.8.74,1.17.99,1.17.93,1.24,1.48.62.19-.25.25-.19.43-.37,1.11-.99,2.59-2.59,3.27-3.89.19-.37.43-.8.68-1.17.74-1.17.93-.99,2.1-1.61.19.25.25.31.43.68l-1.54,2.66c-.74,1.24-2.16,3.65-2.16,5.13s1.05,1.92,2.29,1.92c1.85,0,3.4-.93,4.45-1.73,1.98-1.54,2.16-3.52,1.85-5.87l-.37-8.22c-.43-2.97-2.16-1.92-3.58-1.24-2.72,1.24-6.73,2.9-9.08,4.76-.86.68-1.92,2.22-1.92,3.71"/>
        <path class="cls-2" d="M43.87,49.99c.49,0,.74-.19,1.05-.31l3.89-1.73c1.54-.68,5.07-2.41,6.3-3.58,3.52-3.27.8-8.28-.86-9.39-.62.43-3.09,2.97-3.58,3.65-1.11,1.48-1.42,3.65-3.52,3.83-.25-.86-.62-.06.43-1.92.86-1.48,2.9-4.63,2.9-6.3s-1.67-2.04-3.03-2.04-1.79.43-2.41.74c-1.17.62-2.59,1.98-3.03,3.34-.19.68-.25,2.22-.12,2.97l.49,9.02c.06.99.74,1.73,1.48,1.73"/>
      </g>
    </g>
    <g>
      <path class="cls-1" d="M97.92,14.22h1.85c1.36,0,2.22.99,2.22,2.53v5.31c0,1.61-.86,2.53-2.22,2.53h-1.85v-10.38h0ZM99.72,27.44c1.61,0,2.9-.49,4.02-1.42,1.05-.93,1.61-2.22,1.61-3.83v-5.56c0-1.54-.56-2.84-1.61-3.83s-2.41-1.42-4.02-1.42h-4.2c-.62,0-.93.37-.93,1.05v13.9c0,.68.31,1.05.93,1.05h4.2v.06Z"/>
      <path class="cls-1" d="M115.35,16.5c0-1.54.93-2.59,2.29-2.59s2.29.99,2.29,2.59v2.78h-4.57v-2.78h0ZM119.86,26.64c0,.62.56.93,1.67.93s1.67-.31,1.67-.93v-10.32c0-1.54-.56-2.84-1.61-3.83s-2.41-1.42-4.02-1.42-2.97.49-4.02,1.42-1.61,2.22-1.61,3.83v10.32c0,.62.56.93,1.67.93s1.67-.31,1.67-.93v-4.57h4.57v4.57h0Z"/>
      <path class="cls-1" d="M138.08,20.77c.56,0,.86-.49.86-1.42s-.25-1.42-.86-1.42h-4.7v-3.77h5.44c.56,0,.86-.49.86-1.42s-.25-1.42-.86-1.42h-7.91c-.56,0-.86.37-.86,1.05v14.21c0,.62.56.93,1.67.93s1.67-.31,1.67-.93v-5.87h4.7v.06Z"/>
      <path class="cls-1" d="M153.59,20.77c.56,0,.86-.49.86-1.42s-.25-1.42-.86-1.42h-4.7v-3.77h5.44c.56,0,.86-.49.86-1.42s-.25-1.42-.86-1.42h-7.91c-.56,0-.86.37-.86,1.05v14.21c0,.62.56.93,1.67.93s1.67-.31,1.67-.93v-5.87h4.7v.06Z"/>
      <path class="cls-1" d="M168.67,22.31c0,1.61-.86,2.59-2.29,2.59s-2.29-.99-2.29-2.59v-5.81c0-1.54.86-2.59,2.29-2.59s2.29.99,2.29,2.59c0,0,0,5.81,0,5.81ZM172,16.38c0-1.54-.56-2.84-1.61-3.83-1.05-.93-2.41-1.42-3.95-1.42s-2.9.49-4.02,1.42c-1.05.93-1.61,2.22-1.61,3.83v6.12c0,1.61.56,2.84,1.61,3.83s2.41,1.42,4.02,1.42,2.9-.49,3.95-1.42,1.61-2.22,1.61-3.83v-6.12Z"/>
      <path class="cls-1" d="M182.01,14.22h1.85c1.36,0,2.22.99,2.22,2.53v5.31c0,1.61-.86,2.53-2.22,2.53h-1.85v-10.38h0ZM183.8,27.44c1.61,0,2.9-.49,4.02-1.42,1.05-.93,1.61-2.22,1.61-3.83v-5.56c0-1.54-.56-2.84-1.61-3.83-1.05-.93-2.41-1.42-4.02-1.42h-4.2c-.62,0-.93.37-.93,1.05v13.9c0,.68.31,1.05.93,1.05h4.2v.06Z"/>
      <path class="cls-1" d="M199.49,12.18c0-.62-.56-.93-1.67-.93s-1.67.31-1.67.93v14.46c0,.62.56.93,1.67.93s1.67-.31,1.67-.93v-14.46h0Z"/>
      <path class="cls-1" d="M209.87,12.18c0-.62-.56-.93-1.67-.93s-1.67.31-1.67.93v14.21c0,.68.31,1.05.99,1.05h7.91c.56,0,.86-.49.86-1.42s-.25-1.42-.86-1.42h-5.56v-12.42h0Z"/>
    </g>
    <g>
      <path class="cls-1" d="M126.78,39.3h-2.66v2.41c0,.25-.25.43-.68.43s-.68-.12-.68-.43v-5.13c0-.8.25-1.42.74-1.85.49-.49,1.17-.68,1.92-.68s1.42.25,1.92.68c.49.49.8,1.11.8,1.85v5.13c0,.25-.25.43-.68.43s-.68-.12-.68-.43v-2.41h0ZM124.12,38.19h2.66v-1.48c0-.93-.56-1.48-1.36-1.48s-1.36.56-1.36,1.48v1.48h.06Z"/>
      <path class="cls-1" d="M130.92,42.08c-.31,0-.43-.12-.43-.49v-6.92c0-.31.12-.49.43-.49h1.98c.74,0,1.42.25,1.92.68s.74,1.11.74,1.85v2.72c0,.8-.25,1.42-.74,1.85s-1.11.68-1.92.68h-1.98v.12ZM131.84,40.97h1.11c.8,0,1.3-.56,1.3-1.48v-2.66c0-.93-.49-1.48-1.3-1.48h-1.11v5.62h0Z"/>
      <path class="cls-1" d="M138.27,42.08c-.31,0-.43-.12-.43-.49v-6.92c0-.31.12-.49.43-.49h1.98c.74,0,1.42.25,1.92.68s.74,1.11.74,1.85v2.72c0,.8-.25,1.42-.74,1.85s-1.11.68-1.92.68h-1.98v.12ZM139.13,40.97h1.11c.8,0,1.3-.56,1.3-1.48v-2.66c0-.93-.49-1.48-1.3-1.48h-1.11v5.62h0Z"/>
      <path class="cls-1" d="M146.55,41.77c0,.25-.25.43-.68.43s-.68-.12-.68-.43v-7.23c0-.25.25-.43.68-.43s.68.12.68.43v7.23Z"/>
      <path class="cls-1" d="M150.32,41.77c0,.25-.25.43-.68.43s-.68-.12-.68-.43v-5.13c0-.8.25-1.42.74-1.85.49-.49,1.17-.68,1.92-.68s1.42.25,1.92.68c.49.49.8,1.11.8,1.85v5.13c0,.25-.25.43-.68.43s-.68-.12-.68-.43v-5.07c0-.93-.56-1.48-1.36-1.48s-1.36.56-1.36,1.48v5.07h.06Z"/>
      <path class="cls-1" d="M160.57,38.99h-.93c-.25,0-.37-.19-.37-.56s.12-.56.37-.56h1.92c.25,0,.37.12.37.37v1.36c0,.8-.25,1.42-.74,1.85s-1.11.68-1.92.68-1.42-.25-1.92-.68-.74-1.11-.74-1.85v-2.97c0-.8.25-1.42.74-1.85s1.11-.68,1.92-.68,1.42.25,1.92.68c.49.43.74,1.05.74,1.79h0c0,.37-.25.49-.68.49s-.68-.12-.68-.43h0c0-.37-.12-.68-.37-.99-.25-.25-.56-.43-.93-.43-.8,0-1.3.56-1.3,1.48v2.9c0,.93.56,1.48,1.3,1.48s1.3-.56,1.3-1.48v-.62h0Z"/>
      <path class="cls-1" d="M167.92,42.08c-.25,0-.37-.12-.37-.43v-7.1c0-.25.25-.43.68-.43s.68.12.68.43v6.43h2.9c.25,0,.37.19.37.56s-.12.56-.37.56h-3.89Z"/>
      <path class="cls-1" d="M175.15,41.77c0,.25-.25.43-.68.43s-.68-.12-.68-.43v-7.23c0-.25.25-.43.68-.43s.68.12.68.43v7.23Z"/>
      <path class="cls-1" d="M177.62,34.67c0-.31.12-.43.37-.43h3.83c.25,0,.37.19.37.56s-.12.56-.37.56h-2.84v2.22h2.47c.25,0,.37.19.37.56s-.12.56-.37.56h-2.47v3.09c0,.25-.25.43-.68.43s-.68-.12-.68-.43v-7.1h0Z"/>
      <path class="cls-1" d="M184.3,42.08c-.25,0-.37-.12-.37-.43v-6.98c0-.31.12-.43.37-.43h3.71c.25,0,.37.19.37.56s-.12.56-.37.56h-2.72v2.1h2.47c.25,0,.37.19.37.56s-.12.56-.37.56h-2.47v2.35h2.78c.25,0,.37.19.37.56s-.12.56-.37.56h-3.77v.06Z"/>
    </g>
  </g>
</svg>