<?xml version="1.0" encoding="UTF-8"?>
<svg id="Layer_1" data-name="Layer 1" xmlns="http://www.w3.org/2000/svg" xmlns:xlink="http://www.w3.org/1999/xlink" viewBox="0 0 362.57 50">
  <defs>
    <style>
      .cls-1 {
        clip-path: url(#clippath-6);
      }

      .cls-2 {
        clip-path: url(#clippath-4);
      }

      .cls-3 {
        clip-path: url(#clippath-1);
      }

      .cls-4 {
        clip-path: url(#clippath-5);
      }

      .cls-5 {
        clip-path: url(#clippath-3);
      }

      .cls-6 {
        fill: #f5f5f5;
      }

      .cls-7 {
        clip-path: url(#clippath-2);
      }

      .cls-8 {
        clip-path: url(#clippath);
      }
    </style>
    <clipPath id="clippath">
      <polygon class="cls-6" points="29.96 1.71 20.58 26.51 10.8 1.71 0 1.71 20.33 50 40.66 1.71 29.96 1.71"/>
    </clipPath>
    <clipPath id="clippath-1">
      <polygon class="cls-6" points="69.62 0 50.43 45.9 59.87 45.9 70.4 19.82 80.51 45.9 91.03 45.9 71.84 0 69.62 0"/>
    </clipPath>
    <clipPath id="clippath-2">
      <polygon class="cls-6" points="232.48 0 213.29 45.9 222.73 45.9 233.26 19.82 243.37 45.9 253.89 45.9 234.7 0 232.48 0"/>
    </clipPath>
    <clipPath id="clippath-3">
      <polygon class="cls-6" points="110.35 .28 110.35 45.9 119.72 45.9 119.56 20.36 146.98 47.38 149.09 47.38 149.09 1.71 139.83 1.71 139.94 27.67 112.63 .28 110.35 .28"/>
    </clipPath>
    <clipPath id="clippath-4">
      <polygon class="cls-6" points="170.51 1.71 170.51 10.87 180.75 10.87 180.75 45.9 190 45.9 190 10.87 200.52 10.87 200.52 1.71 170.51 1.71"/>
    </clipPath>
    <clipPath id="clippath-5">
      <path class="cls-6" d="M282.9,10.87h4.67c1.58,0,2.79.31,3.58.93.85.66,1.41,1.41,1.73,2.28.35.96.53,1.82.53,2.56s-.18,1.64-.55,2.59c-.33.87-.91,1.59-1.78,2.21-.84.6-2.09.91-3.74.91h-4.44v-11.49ZM273.6,1.71v44.19h9.3v-14.39h4.42l9.18,14.39h10.8l-10.47-16.9c2-1.32,3.48-3.05,4.42-5.13,1.09-2.41,1.63-4.92,1.63-7.46,0-3.06-.7-5.73-2.09-7.94-1.39-2.21-3.36-3.92-5.85-5.07-2.43-1.12-5.29-1.69-8.49-1.69h-12.85Z"/>
    </clipPath>
    <clipPath id="clippath-6">
      <polygon class="cls-6" points="341.17 0 321.98 45.9 331.42 45.9 341.94 19.82 352.06 45.9 362.57 45.9 343.39 0 341.17 0"/>
    </clipPath>
  </defs>
  <g>
    <polygon class="cls-6" points="29.96 1.71 20.58 26.51 10.8 1.71 0 1.71 20.33 50 40.66 1.71 29.96 1.71"/>
    <g class="cls-8">
      <rect class="cls-6" y="1.71" width="40.66" height="48.29"/>
    </g>
  </g>
  <g>
    <polygon class="cls-6" points="69.62 0 50.43 45.9 59.87 45.9 70.4 19.82 80.51 45.9 91.03 45.9 71.84 0 69.62 0"/>
    <g class="cls-3">
      <rect class="cls-6" x="50.43" width="40.59" height="45.9"/>
    </g>
  </g>
  <g>
    <polygon class="cls-6" points="232.48 0 213.29 45.9 222.73 45.9 233.26 19.82 243.37 45.9 253.89 45.9 234.7 0 232.48 0"/>
    <g class="cls-7">
      <rect class="cls-6" x="213.29" y="0" width="40.59" height="45.9"/>
    </g>
  </g>
  <g>
    <polygon class="cls-6" points="110.35 .28 110.35 45.9 119.72 45.9 119.56 20.36 146.98 47.38 149.09 47.38 149.09 1.71 139.83 1.71 139.94 27.67 112.63 .28 110.35 .28"/>
    <g class="cls-5">
      <rect class="cls-6" x="110.35" y=".28" width="38.74" height="47.09"/>
    </g>
  </g>
  <g>
    <polygon class="cls-6" points="170.51 1.71 170.51 10.87 180.75 10.87 180.75 45.9 190 45.9 190 10.87 200.52 10.87 200.52 1.71 170.51 1.71"/>
    <g class="cls-2">
      <rect class="cls-6" x="170.51" y="1.71" width="30.01" height="44.19"/>
    </g>
  </g>
  <g>
    <path class="cls-6" d="M282.9,10.87h4.67c1.58,0,2.79.31,3.58.93.85.66,1.41,1.41,1.73,2.28.35.96.53,1.82.53,2.56s-.18,1.64-.55,2.59c-.33.87-.91,1.59-1.78,2.21-.84.6-2.09.91-3.74.91h-4.44v-11.49ZM273.6,1.71v44.19h9.3v-14.39h4.42l9.18,14.39h10.8l-10.47-16.9c2-1.32,3.48-3.05,4.42-5.13,1.09-2.41,1.63-4.92,1.63-7.46,0-3.06-.7-5.73-2.09-7.94-1.39-2.21-3.36-3.92-5.85-5.07-2.43-1.12-5.29-1.69-8.49-1.69h-12.85Z"/>
    <g class="cls-4">
      <rect class="cls-6" x="273.6" y="1.71" width="33.7" height="44.19"/>
    </g>
  </g>
  <g>
    <polygon class="cls-6" points="341.17 0 321.98 45.9 331.42 45.9 341.94 19.82 352.06 45.9 362.57 45.9 343.39 0 341.17 0"/>
    <g class="cls-1">
      <rect class="cls-6" x="321.98" y="0" width="40.59" height="45.9"/>
    </g>
  </g>
</svg>