<?xml version="1.0" encoding="utf-8"?>
<!-- Generator: Adobe Illustrator 23.1.0, SVG Export Plug-In . SVG Version: 6.00 Build 0)  -->
<svg version="1.1"
	 id="svg8" inkscape:version="0.92.4 (5da689c313, 2019-01-14)" sodipodi:docname="AN Pictures.svg" xmlns:cc="http://creativecommons.org/ns#" xmlns:dc="http://purl.org/dc/elements/1.1/" xmlns:inkscape="http://www.inkscape.org/namespaces/inkscape" xmlns:rdf="http://www.w3.org/1999/02/22-rdf-syntax-ns#" xmlns:sodipodi="http://sodipodi.sourceforge.net/DTD/sodipodi-0.dtd" xmlns:svg="http://www.w3.org/2000/svg"
	 xmlns="http://www.w3.org/2000/svg" xmlns:xlink="http://www.w3.org/1999/xlink" x="0px" y="0px" viewBox="0 0 500 500"
	 style="enable-background:new 0 0 500 500;" xml:space="preserve">
<sodipodi:namedview  bordercolor="#666666" borderopacity="1.0" id="base" inkscape:current-layer="layer1" inkscape:cx="406.20785" inkscape:cy="395.66414" inkscape:document-units="mm" inkscape:pagecheckerboard="true" inkscape:pageopacity="0" inkscape:pageshadow="2" inkscape:showpageshadow="true" inkscape:window-height="1051" inkscape:window-maximized="1" inkscape:window-width="1920" inkscape:window-x="-9" inkscape:window-y="-9" inkscape:zoom="0.98994949" pagecolor="#ffffff" showborder="true" showgrid="false" units="px">
	</sodipodi:namedview>
<g id="layer1" transform="translate(0,-111.41374)" inkscape:groupmode="layer" inkscape:label="Layer 1">
	
		<path id="path826" inkscape:connector-curvature="0" inkscape:export-filename="C:\Users\Nilde_4vmeerk\Pictures\Camera Roll\path826.png" inkscape:export-xdpi="96" inkscape:export-ydpi="96" d="
		M161.4,470.2v-88.4l-60.8-60.8l-60.8-60.8V331v70.7l-19.9-19.9L0,361.9v-99.1v-99.1l79.9,79.9c44,44,80.3,79.9,80.7,79.9
		c0.4,0,0.7-36,0.7-79.9v-79.9l149.4,149.4l149.4,149.4v-70.7v-70.7l19.9,19.9l19.9,19.9V460v99.1L350.6,409.7L201.2,260.3v52.3
		v52.3l96.9,96.9l96.9,96.9H278.1H161.4V470.2z M297.8,518.5c0-0.1-21.7-22-48.3-48.6l-48.3-48.3v48.6v48.6h48.3
		C276.1,518.8,297.8,518.7,297.8,518.5L297.8,518.5z"/>
</g>
</svg>
